<svg xmlns="http://www.w3.org/2000/svg" viewBox="0 0 177.52 51"><defs><style>.cls-1{fill:#00a99d;}.cls-2{fill:#fff;}</style></defs><title>admin</title><g id="Layer_2" data-name="Layer 2"><g id="Layer_1-2" data-name="Layer 1"><rect class="cls-1" width="177.52" height="51" rx="6.62" ry="6.62"/><path class="cls-2" d="M53,27.13,50.7,33.31H49.3l6.56-17.88h1.63l6.85,17.88H62.83l-2.32-6.18Zm7.08-1.28c-2-5.31-3-7.87-3.37-9.07h0c-.43,1.35-1.58,4.52-3.19,9.07Z"/><path class="cls-2" d="M67.51,15.43h5.92c4.91,0,8.31,3.42,8.31,8.78s-3.33,9.1-8.33,9.1h-5.9ZM68.89,32H73.2c4.73,0,7-3.32,7-7.74,0-3.93-2.09-7.59-7-7.59H68.89Z"/><path class="cls-2" d="M101.15,25.08c0-3.5,0-6.84.1-8.63h-.08c-.71,2.4-4.34,11.21-6.61,16.86H93.2c-1.71-4.37-5.46-14.18-6.28-16.89h0c.13,2,.18,6.21.18,9.28v7.61H85.67V15.43h2.07C90.19,21.56,93.28,29.58,94,31.6h0c.41-1.31,4-10.22,6.48-16.17h2V33.31h-1.38Z"/><path class="cls-2" d="M109.17,15.43V33.31h-1.38V15.43Z"/><path class="cls-2" d="M114.43,33.31V15.43h2c2.79,4.29,9.33,14.28,10.45,16.22h0c-.16-2.58-.13-5.21-.13-8.13V15.43h1.4V33.31h-1.89c-2.65-4.14-9.29-14.54-10.57-16.5h0c.13,2.35.1,5,.1,8.2v8.3Z"/></g></g></svg>