<svg xmlns="http://www.w3.org/2000/svg" viewBox="0 0 163 50.73"><defs><style>.cls-1{fill:#00a99d;}.cls-2{fill:#fff;}</style></defs><title>contact-web</title><g id="Layer_2" data-name="Layer 2"><g id="Layer_1-2" data-name="Layer 1"><rect class="cls-1" width="163" height="50.73"/><path class="cls-2" d="M34.15,28.35a4.91,4.91,0,0,1-5.06,3.76c-3.87,0-5.91-3.08-5.91-6.88,0-3.64,2-6.95,5.93-6.95,2.91,0,4.62,1.62,5.06,3.87h-1a3.89,3.89,0,0,0-4.08-2.9c-3.35,0-4.76,3.06-4.76,6s1.39,5.94,4.84,5.94a4,4,0,0,0,4-2.8Z"/><path class="cls-2" d="M48.4,25.12c0,3.68-2,7-6.12,7-3.8,0-6-3.06-6-6.94s2.14-6.93,6.14-6.93C46.11,18.28,48.4,21.19,48.4,25.12Zm-11,0c0,3.1,1.71,6,5,6,3.48,0,4.94-2.85,4.94-6s-1.65-5.89-4.91-5.89C38.91,19.25,37.39,22.12,37.39,25.16Z"/><path class="cls-2" d="M51.36,32V18.48h1.55c2.09,3.23,7,10.76,7.87,12.22h0c-.12-1.94-.1-3.92-.1-6.12v-6.1h1.06V32H60.34c-2-3.12-7-11-8-12.44h0c.09,1.77.07,3.73.07,6.18V32Z"/><path class="cls-2" d="M68.42,19.44H63.9v-1H74v1H69.48V32H68.42Z"/><path class="cls-2" d="M75.89,27.29,74.18,32H73.12l4.95-13.48H79.3L84.46,32H83.33l-1.76-4.67Zm5.34-1c-1.5-4-2.27-5.93-2.54-6.83h0c-.33,1-1.2,3.4-2.41,6.83Z"/><path class="cls-2" d="M96.8,28.35a4.91,4.91,0,0,1-5.06,3.76c-3.87,0-5.91-3.08-5.91-6.88,0-3.64,2-6.95,5.93-6.95,2.91,0,4.62,1.62,5.06,3.87h-1a3.89,3.89,0,0,0-4.08-2.9c-3.35,0-4.75,3.06-4.75,6s1.38,5.94,4.83,5.94a4,4,0,0,0,4-2.8Z"/><path class="cls-2" d="M102.56,19.44H98v-1h10.12v1h-4.54V32h-1.06Z"/><path class="cls-2" d="M116.17,18.48v8.16c0,3.58,2,4.51,3.93,4.51,2.25,0,3.93-.95,3.93-4.51V18.48h1.06v8.1c0,4.22-2.24,5.53-5,5.53s-5-1.44-5-5.35V18.48Z"/><path class="cls-2" d="M128.46,28.33c.4,1.8,1.59,2.85,3.81,2.85,2.46,0,3.41-1.23,3.41-2.69S135,26,132,25.29,128,23.66,128,21.71c0-1.77,1.29-3.43,4.17-3.43s4.22,1.81,4.39,3.45h-1.07c-.31-1.44-1.26-2.48-3.37-2.48-2,0-3,.9-3,2.4s.89,2.06,3.37,2.68c3.8.94,4.35,2.46,4.35,4.08,0,2-1.44,3.7-4.56,3.7-3.37,0-4.6-2-4.85-3.78Z"/></g></g></svg>