<svg xmlns="http://www.w3.org/2000/svg" viewBox="0 0 87.29 23.5"><defs><style>.cls-1{fill:#fff;}.cls-2{fill:none;stroke:#fff;stroke-miterlimit:10;stroke-width:0.84px;}</style></defs><title>contact-mob</title><g id="Layer_2" data-name="Layer 2"><g id="Layer_1-2" data-name="Layer 1"><path class="cls-1" d="M23.7,14.65A4.05,4.05,0,0,1,22,15a3,3,0,0,1-3.12-3.2,3.14,3.14,0,0,1,3.3-3.32,3.4,3.4,0,0,1,1.5.28l-.2.67a3,3,0,0,0-1.27-.26,2.34,2.34,0,0,0-2.47,2.6,2.3,2.3,0,0,0,2.43,2.55A3.24,3.24,0,0,0,23.53,14Z"/><path class="cls-1" d="M29.94,11.63C29.94,13.81,28.61,15,27,15s-2.84-1.29-2.84-3.21,1.24-3.32,2.93-3.32S29.94,9.75,29.94,11.63Zm-4.91.1c0,1.35.73,2.56,2,2.56s2-1.19,2-2.62c0-1.26-.65-2.57-2-2.57S25,10.34,25,11.73Z"/><path class="cls-1" d="M31,14.86V8.53h.89l2,3.2a17.37,17.37,0,0,1,1.13,2.06h0c-.07-.85-.09-1.61-.09-2.6V8.53h.77v6.33h-.83l-2-3.21a18.92,18.92,0,0,1-1.19-2.11h0c.05.79.07,1.55.07,2.61v2.7Z"/><path class="cls-1" d="M38.38,9.23H36.46v-.7h4.68v.7H39.21v5.63h-.83Z"/><path class="cls-1" d="M42.17,12.87l-.66,2h-.85l2.15-6.33h1L46,14.86h-.88l-.67-2Zm2.07-.64-.62-1.82c-.14-.41-.24-.79-.33-1.15h0c-.09.37-.19.76-.32,1.14l-.62,1.83Z"/><path class="cls-1" d="M51.17,14.65a4.05,4.05,0,0,1-1.67.3,3,3,0,0,1-3.13-3.2,3.15,3.15,0,0,1,3.31-3.32,3.48,3.48,0,0,1,1.5.28l-.2.67a3,3,0,0,0-1.28-.26,2.34,2.34,0,0,0-2.46,2.6,2.3,2.3,0,0,0,2.43,2.55A3.27,3.27,0,0,0,51,14Z"/><path class="cls-1" d="M53.66,9.23H51.73v-.7h4.69v.7H54.48v5.63h-.82Z"/><path class="cls-1" d="M59.93,8.53v3.75c0,1.41.63,2,1.47,2s1.54-.61,1.54-2V8.53h.83v3.69c0,1.94-1,2.74-2.39,2.74s-2.27-.74-2.27-2.7V8.53Z"/><path class="cls-1" d="M65.08,13.86a2.83,2.83,0,0,0,1.46.42c.84,0,1.32-.44,1.32-1.08s-.33-.93-1.19-1.26c-1-.37-1.67-.9-1.67-1.79a1.82,1.82,0,0,1,2-1.72,2.89,2.89,0,0,1,1.4.31l-.23.67a2.45,2.45,0,0,0-1.2-.3c-.86,0-1.19.51-1.19.94,0,.59.38.89,1.25,1.22,1.08.42,1.62.93,1.62,1.86S68,15,66.48,15a3.35,3.35,0,0,1-1.61-.4Z"/><rect class="cls-2" x="0.42" y="0.42" width="86.45" height="22.66" rx="3.5" ry="3.5"/></g></g></svg>