<svg xmlns="http://www.w3.org/2000/svg" viewBox="0 0 201.86 200.63"><defs><style>.cls-1{fill:#1b75bc;}.cls-2{fill:#27aae1;}.cls-3{fill:#fff;}</style></defs><title>icon</title><g id="Layer_2" data-name="Layer 2"><g id="Layer_1-2" data-name="Layer 1"><circle class="cls-1" cx="101.55" cy="100.32" r="100.32"/><path class="cls-2" d="M117.85,199.1l-17.53-51.76,47.39-92.18,49.84,20.39A100.36,100.36,0,0,0,95.79.1C43,2.42.75,46,0,98.88A100.39,100.39,0,0,0,117.85,199.1Z"/><rect class="cls-3" x="49.03" y="52.4" width="32.85" height="94.57" rx="7.73" ry="7.73"/><path d="M74.15,52.77a7.37,7.37,0,0,1,7.36,7.36v79.12a7.37,7.37,0,0,1-7.36,7.36H56.75a7.37,7.37,0,0,1-7.36-7.36V60.13a7.37,7.37,0,0,1,7.36-7.36h17.4m0-.73H56.75a8.11,8.11,0,0,0-8.09,8.09v79.12a8.11,8.11,0,0,0,8.09,8.09h17.4a8.11,8.11,0,0,0,8.09-8.09V60.13A8.11,8.11,0,0,0,74.15,52Z"/><rect class="cls-3" x="81.76" y="52.4" width="32.85" height="94.57" rx="7.73" ry="7.73"/><path d="M106.89,52.77a7.37,7.37,0,0,1,7.36,7.36v79.12a7.37,7.37,0,0,1-7.36,7.36H89.49a7.37,7.37,0,0,1-7.36-7.36V60.13a7.37,7.37,0,0,1,7.36-7.36h17.4m0-.73H89.49a8.11,8.11,0,0,0-8.09,8.09v79.12a8.11,8.11,0,0,0,8.09,8.09h17.4a8.11,8.11,0,0,0,8.09-8.09V60.13A8.11,8.11,0,0,0,106.89,52Z"/><rect class="cls-3" x="114.5" y="52.4" width="32.85" height="94.57" rx="7.73" ry="7.73"/><path d="M139.62,52.77A7.37,7.37,0,0,1,147,60.13v79.12a7.37,7.37,0,0,1-7.37,7.36H122.23a7.37,7.37,0,0,1-7.36-7.36V60.13a7.37,7.37,0,0,1,7.36-7.36h17.39m0-.73H122.23a8.11,8.11,0,0,0-8.09,8.09v79.12a8.11,8.11,0,0,0,8.09,8.09h17.39a8.11,8.11,0,0,0,8.09-8.09V60.13A8.11,8.11,0,0,0,139.62,52Z"/><rect x="69.17" y="49.36" width="24.45" height="49.63" rx="7.73" ry="7.73"/><path d="M85.9,49.72a7.37,7.37,0,0,1,7.36,7.36V91.26a7.37,7.37,0,0,1-7.36,7.36h-9a7.37,7.37,0,0,1-7.36-7.36V57.08a7.37,7.37,0,0,1,7.36-7.36h9m0-.73h-9a8.11,8.11,0,0,0-8.09,8.09V91.26a8.11,8.11,0,0,0,8.09,8.09h9A8.11,8.11,0,0,0,94,91.26V57.08A8.11,8.11,0,0,0,85.9,49Z"/><rect x="101.91" y="49.36" width="24.45" height="49.63" rx="7.73" ry="7.73"/><path d="M118.64,49.72A7.37,7.37,0,0,1,126,57.08V91.26a7.37,7.37,0,0,1-7.36,7.36h-9a7.37,7.37,0,0,1-7.37-7.36V57.08a7.37,7.37,0,0,1,7.37-7.36h9m0-.73h-9a8.11,8.11,0,0,0-8.09,8.09V91.26a8.11,8.11,0,0,0,8.09,8.09h9a8.11,8.11,0,0,0,8.09-8.09V57.08A8.11,8.11,0,0,0,118.64,49Z"/></g></g></svg>