<svg xmlns="http://www.w3.org/2000/svg" viewBox="0 0 87.26 87.26"><defs><style>.cls-1{fill:#00a99d;}.cls-2{fill:#f1f2f2;}</style></defs><title>insta</title><g id="Layer_2" data-name="Layer 2"><g id="Layer_1-2" data-name="Layer 1"><circle class="cls-1" cx="43.63" cy="43.63" r="43.63"/><path class="cls-2" d="M60.38,22.69H26.88a4.2,4.2,0,0,0-4.19,4.19v33.5a4.2,4.2,0,0,0,4.19,4.19h33.5a4.2,4.2,0,0,0,4.19-4.19V26.88a4.2,4.2,0,0,0-4.19-4.19ZM43.63,35.26a8.38,8.38,0,1,1-8.37,8.37,8.39,8.39,0,0,1,8.37-8.37ZM27.93,60.38a1,1,0,0,1-1.05-1V41.54h4.4a7.11,7.11,0,0,0-.21,2.09,12.57,12.57,0,1,0,25.13,0A6.8,6.8,0,0,0,56,41.54h4.4v17.8a1,1,0,0,1-1,1ZM60.38,32.12a1,1,0,0,1-1,1h-4.2a1,1,0,0,1-1-1V27.93a1,1,0,0,1,1-1.05h4.2a1,1,0,0,1,1,1.05Z"/></g></g></svg>