<svg xmlns="http://www.w3.org/2000/svg" viewBox="0 0 276.84 147.11"><defs><style>.cls-1,.cls-2{fill:#fff;}.cls-2{stroke:#fff;stroke-miterlimit:10;stroke-width:0.75px;}</style></defs><title>know</title><g id="Layer_2" data-name="Layer 2"><g id="Layer_1-2" data-name="Layer 1"><path class="cls-1" d="M6.63,71.34v1.29H0V71.34Z"/><path class="cls-1" d="M19.94,76.21a14.82,14.82,0,0,0,.19,2.5H18.86a9.06,9.06,0,0,1-.23-2C18.18,77.65,17,79,14.31,79c-3.05,0-4.36-2-4.36-3.94,0-2.9,2.23-4.21,6.18-4.21h2.5V69.53c0-1.32-.4-3.08-3.4-3.08-2.65,0-3.05,1.39-3.34,2.47H10.58c.15-1.45,1.05-3.68,4.68-3.68,3,0,4.68,1.26,4.68,4.15ZM18.65,72H16.08c-2.92,0-4.74.76-4.74,3a2.75,2.75,0,0,0,3,2.79c3.76,0,4.28-2.5,4.28-5.34Z"/><path class="cls-1" d="M24.84,78.71V59.32h1.31V78.71Z"/><path class="cls-1" d="M31,78.71V59.32h1.31V78.71Z"/><path class="cls-1" d="M42.62,65.55h2.45v-4.1h1.31v4.1h3.13v1.24H46.38v8.55c0,1.47.32,2.31,1.58,2.31a5,5,0,0,0,1.37-.15v1.15a4.5,4.5,0,0,1-1.63.24c-1.68,0-2.63-.84-2.63-3V66.79H42.62Z"/><path class="cls-1" d="M52.88,72.29c0,3.39,1.74,5.5,4.26,5.5a3.7,3.7,0,0,0,3.79-2.48h1.34A5,5,0,0,1,57.09,79c-4,0-5.55-3.44-5.55-6.79,0-3.76,1.87-7,5.71-7,4,0,5.34,3.5,5.34,6,0,.37,0,.74,0,1.08Zm8.34-1.16c0-2.6-1.44-4.66-4-4.66s-4,1.9-4.24,4.66Z"/><path class="cls-1" d="M75.38,76.21a15.13,15.13,0,0,0,.18,2.5H74.3a8.27,8.27,0,0,1-.24-2c-.45,1-1.6,2.34-4.31,2.34-3,0-4.37-2-4.37-3.94,0-2.9,2.24-4.21,6.18-4.21h2.5V69.53c0-1.32-.39-3.08-3.39-3.08-2.66,0-3,1.39-3.34,2.47H66c.16-1.45,1-3.68,4.68-3.68,3,0,4.69,1.26,4.69,4.15ZM74.09,72H71.51c-2.92,0-4.74.76-4.74,3a2.75,2.75,0,0,0,3,2.79c3.76,0,4.29-2.5,4.29-5.34Z"/><path class="cls-1" d="M90,74.84c-.63,2.31-2.16,4.18-5.1,4.18-3.29,0-5.63-2.44-5.63-6.84,0-3.6,1.92-6.94,5.79-6.94A4.7,4.7,0,0,1,90,69.45H88.61a3.55,3.55,0,0,0-3.63-3c-2.79,0-4.37,2.37-4.37,5.66,0,3.13,1.48,5.66,4.24,5.66,1.92,0,3.08-1,3.76-3Z"/><path class="cls-1" d="M94.87,59.32v8.44a4.61,4.61,0,0,1,4.34-2.52c1.87,0,4.45,1,4.45,5.1v8.37h-1.32V70.6c0-2.6-1.18-4.07-3.36-4.07-2.61,0-4.11,1.6-4.11,4.84v7.34H93.56V59.32Z"/><path class="cls-1" d="M108.82,72.29c0,3.39,1.73,5.5,4.26,5.5a3.72,3.72,0,0,0,3.79-2.48h1.34A5,5,0,0,1,113,79c-4,0-5.55-3.44-5.55-6.79,0-3.76,1.86-7,5.7-7,4.06,0,5.34,3.5,5.34,6,0,.37,0,.74,0,1.08Zm8.34-1.16c0-2.6-1.45-4.66-4-4.66s-3.94,1.9-4.23,4.66Z"/><path class="cls-1" d="M122.29,69.13c0-2.21,0-3.16,0-3.58h1.29c0,.42,0,1.27,0,3a5,5,0,0,1,4.58-3.26v1.42c-2.73.18-4.58,2.08-4.58,5.21v6.84h-1.31Z"/><path class="cls-1" d="M131.47,75.08a3.48,3.48,0,0,0,3.74,2.73c2.34,0,3.28-1.08,3.28-2.55s-.63-2.23-3.57-3c-3.4-.81-4.24-1.84-4.24-3.57s1.37-3.5,4.34-3.5,4.4,1.81,4.61,3.68h-1.32A3.1,3.1,0,0,0,135,66.45c-2.29,0-2.95,1.13-2.95,2.18,0,1.21.63,1.82,3.24,2.45,3.71.89,4.63,2.1,4.63,4.07,0,2.4-1.95,3.87-4.71,3.87-3,0-4.68-1.58-5.05-3.94Z"/><path class="cls-1" d="M151.1,68.87c0-1.16,0-2.26,0-3.32h1.29c0,.42.08,2.13,0,2.5a4.3,4.3,0,0,1,4.37-2.81c2.34,0,4.42,1.31,4.42,4.94v8.53h-1.32V70.39c0-2.34-1-3.86-3.26-3.86-3.13,0-4.21,2.6-4.21,5.47v6.71H151.1Z"/><path class="cls-1" d="M176.72,72.1c0,3.66-2,6.92-5.94,6.92-3.55,0-5.76-2.92-5.76-6.89,0-3.76,2.07-6.89,5.89-6.89C174.41,65.24,176.72,68,176.72,72.1Zm-10.31,0c0,3.13,1.68,5.66,4.47,5.66s4.45-2.35,4.45-5.66c0-3.1-1.58-5.66-4.5-5.66S166.41,69,166.41,72.13Z"/><path class="cls-1" d="M6.63,102.91v1.29H0v-1.29Z"/><path class="cls-1" d="M19.94,107.78a14.71,14.71,0,0,0,.19,2.5H18.86a9.06,9.06,0,0,1-.23-2c-.45,1-1.61,2.34-4.32,2.34-3.05,0-4.36-2-4.36-3.94,0-2.89,2.23-4.21,6.18-4.21h2.5V101.1c0-1.32-.4-3.08-3.4-3.08-2.65,0-3.05,1.39-3.34,2.47H10.58c.15-1.44,1.05-3.68,4.68-3.68,3,0,4.68,1.26,4.68,4.16Zm-1.29-4.21H16.08c-2.92,0-4.74.76-4.74,3a2.74,2.74,0,0,0,3,2.78c3.76,0,4.28-2.49,4.28-5.34Z"/><path class="cls-1" d="M24.84,110.28V90.89h1.31v19.39Z"/><path class="cls-1" d="M31,110.28V90.89h1.31v19.39Z"/><path class="cls-1" d="M44.6,106.65a3.47,3.47,0,0,0,3.73,2.73c2.34,0,3.29-1.07,3.29-2.55S51,104.6,48,103.89c-3.39-.82-4.23-1.84-4.23-3.58s1.36-3.5,4.34-3.5,4.39,1.82,4.6,3.68H51.44A3.11,3.11,0,0,0,48.09,98c-2.28,0-2.94,1.13-2.94,2.18,0,1.21.63,1.82,3.23,2.45,3.71.89,4.63,2.1,4.63,4.08,0,2.39-1.94,3.86-4.71,3.86-3,0-4.68-1.57-5-3.94Z"/><path class="cls-1" d="M54.78,97.13h2.44V93h1.32v4.11h3.13v1.23H58.54v8.55c0,1.47.32,2.32,1.58,2.32a5.07,5.07,0,0,0,1.37-.16v1.16a4.73,4.73,0,0,1-1.63.23c-1.69,0-2.64-.84-2.64-2.94V98.36H54.78Z"/><path class="cls-1" d="M73.93,107.78a15,15,0,0,0,.18,2.5H72.85a9.47,9.47,0,0,1-.24-2c-.44,1-1.6,2.34-4.31,2.34-3,0-4.37-2-4.37-3.94,0-2.89,2.24-4.21,6.19-4.21h2.49V101.1c0-1.32-.39-3.08-3.39-3.08-2.66,0-3,1.39-3.34,2.47H64.56c.16-1.44,1.06-3.68,4.69-3.68,3,0,4.68,1.26,4.68,4.16Zm-1.29-4.21H70.06c-2.92,0-4.73.76-4.73,3a2.74,2.74,0,0,0,3,2.78c3.76,0,4.29-2.49,4.29-5.34Z"/><path class="cls-1" d="M80.35,98.36v11.92H79V98.36H76.77V97.13H79V95.31c0-2.26.5-4.68,3.44-4.68a2.87,2.87,0,0,1,1.19.18v1.24a4.3,4.3,0,0,0-1.27-.19c-1.47,0-2.05,1-2.05,3.24v2h5.29V95.31c0-2.26.55-4.68,3.44-4.68a2.87,2.87,0,0,1,1.19.18v1.24A4.3,4.3,0,0,0,89,91.86c-1.47,0-2,1-2,3.24v2h2.79v1.23H87v11.92H85.64V98.36Z"/><path class="cls-1" d="M92.74,106.65a3.48,3.48,0,0,0,3.74,2.73c2.34,0,3.29-1.07,3.29-2.55s-.64-2.23-3.58-2.94c-3.4-.82-4.24-1.84-4.24-3.58s1.37-3.5,4.34-3.5,4.4,1.82,4.61,3.68H99.58A3.1,3.1,0,0,0,96.24,98c-2.29,0-2.95,1.13-2.95,2.18,0,1.21.64,1.82,3.24,2.45,3.71.89,4.63,2.1,4.63,4.08,0,2.39-2,3.86-4.71,3.86-3,0-4.68-1.57-5-3.94Z"/><path class="cls-1" d="M127.76,98.44l-4.58,7.1c-2.23,3.45-3.84,5-6.79,5a4.67,4.67,0,0,1-4.76-4.68c0-2.24,1-4,4.92-6,2.69-1.74,3.68-2.47,3.68-4.16a2.75,2.75,0,1,0-5.49.11c0,1.18.81,2.29,2.39,3.79L128,110.28h-2l-10-9.81c-1.71-1.63-2.71-2.84-2.71-4.71a4,4,0,0,1,4.21-4.16,3.91,3.91,0,0,1,4,4.05c0,1.79-1,2.95-4.21,4.95-3.71,2.1-4.34,3.39-4.34,5.15a3.54,3.54,0,0,0,3.34,3.5c2.13,0,3.56-.73,5.92-4.52l3.92-6.29Z"/><path class="cls-1" d="M140.55,90.89v8.45a4.57,4.57,0,0,1,4.34-2.53c1.87,0,4.44,1,4.44,5.1v8.37H148v-8.1c0-2.61-1.19-4.08-3.37-4.08-2.6,0-4.1,1.6-4.1,4.84v7.34h-1.32V90.89Z"/><path class="cls-1" d="M164.86,103.68c0,3.65-2,6.91-6,6.91-3.55,0-5.76-2.92-5.76-6.89,0-3.76,2.08-6.89,5.89-6.89C162.54,96.81,164.86,99.55,164.86,103.68Zm-10.32,0c0,3.13,1.69,5.66,4.48,5.66s4.44-2.34,4.44-5.66c0-3.1-1.58-5.65-4.5-5.65S154.54,100.55,154.54,103.7Z"/><path class="cls-1" d="M179,90.89v15.6c0,1.26,0,2.47,0,3.79h-1.26c-.05-.32-.08-1.55-.08-2.21-.66,1.6-2.13,2.52-4.42,2.52-3.42,0-5.47-2.78-5.47-6.73s2.23-7,5.81-7c2.63,0,3.69,1.13,4.08,2V90.89Zm-9.82,12.92c0,3.6,1.87,5.55,4.13,5.55,3.48,0,4.42-2.4,4.42-6,0-3.4-.81-5.34-4.18-5.34C170.94,98.05,169.17,100.12,169.17,103.81Z"/><path class="cls-1" d="M191.25,100.44c0-1.16,0-2.26,0-3.31h1.29c.05.42.08,2.13.05,2.49a4.3,4.3,0,0,1,4.37-2.81c2.34,0,4.42,1.32,4.42,5v8.52H200V102c0-2.35-1-3.87-3.26-3.87-3.13,0-4.21,2.6-4.21,5.47v6.71h-1.31Z"/><path class="cls-1" d="M216.87,103.68c0,3.65-2,6.91-5.94,6.91-3.56,0-5.77-2.92-5.77-6.89,0-3.76,2.08-6.89,5.9-6.89C214.56,96.81,216.87,99.55,216.87,103.68Zm-10.31,0c0,3.13,1.68,5.66,4.47,5.66s4.45-2.34,4.45-5.66c0-3.1-1.58-5.65-4.5-5.65S206.56,100.55,206.56,103.7Z"/><path class="cls-1" d="M6.63,134.49v1.28H0v-1.28Z"/><path class="cls-1" d="M19.94,139.35a14.71,14.71,0,0,0,.19,2.5H18.86a8.84,8.84,0,0,1-.23-2c-.45,1-1.61,2.34-4.32,2.34-3.05,0-4.36-2-4.36-3.95,0-2.89,2.23-4.21,6.18-4.21h2.5v-1.34c0-1.31-.4-3.08-3.4-3.08-2.65,0-3.05,1.4-3.34,2.48H10.58c.15-1.45,1.05-3.69,4.68-3.69,3,0,4.68,1.27,4.68,4.16Zm-1.29-4.21H16.08c-2.92,0-4.74.77-4.74,3a2.75,2.75,0,0,0,3,2.79c3.76,0,4.28-2.5,4.28-5.34Z"/><path class="cls-1" d="M24.84,141.85V122.46h1.31v19.39Z"/><path class="cls-1" d="M31,141.85V122.46h1.31v19.39Z"/><path class="cls-1" d="M54.75,122.46v15.6c0,1.27,0,2.48,0,3.79H53.51c0-.31-.08-1.55-.08-2.21-.65,1.61-2.13,2.53-4.42,2.53-3.41,0-5.47-2.79-5.47-6.74s2.24-7.05,5.82-7.05c2.63,0,3.68,1.13,4.07,2v-7.9Zm-9.81,12.92c0,3.6,1.87,5.55,4.13,5.55,3.47,0,4.42-2.39,4.42-6,0-3.39-.82-5.34-4.19-5.34C46.7,129.62,44.94,131.7,44.94,135.38Z"/><path class="cls-1" d="M59.91,135.43c0,3.4,1.73,5.5,4.26,5.5A3.71,3.71,0,0,0,68,138.46H69.3a5,5,0,0,1-5.18,3.71c-4,0-5.55-3.45-5.55-6.79,0-3.76,1.86-7,5.7-7,4.06,0,5.34,3.5,5.34,6,0,.37,0,.74,0,1.08Zm8.34-1.15c0-2.61-1.45-4.66-4-4.66s-3.94,1.89-4.23,4.66Z"/><path class="cls-1" d="M74.69,139.9v7.21H73.38V131.93c0-1.07,0-2.23,0-3.23h1.29c0,.5,0,1.29,0,2.37a4.85,4.85,0,0,1,4.63-2.69c3.11,0,5.26,2.61,5.26,6.55,0,4.74-2.52,7.24-5.7,7.24A4.31,4.31,0,0,1,74.69,139.9Zm8.5-4.92c0-3-1.47-5.33-4.08-5.33-3.18,0-4.49,2-4.49,5.57s1,5.71,4.31,5.71C81.67,140.93,83.19,138.62,83.19,135Z"/><path class="cls-1" d="M97.45,139.35a16.24,16.24,0,0,0,.18,2.5H96.37a8.84,8.84,0,0,1-.23-2c-.45,1-1.61,2.34-4.32,2.34-3,0-4.37-2-4.37-3.95,0-2.89,2.24-4.21,6.19-4.21h2.5v-1.34c0-1.31-.4-3.08-3.4-3.08-2.66,0-3,1.4-3.34,2.48H88.09c.15-1.45,1-3.69,4.68-3.69,3,0,4.68,1.27,4.68,4.16Zm-1.29-4.21H93.58c-2.92,0-4.73.77-4.73,3a2.74,2.74,0,0,0,3,2.79c3.77,0,4.29-2.5,4.29-5.34Z"/><path class="cls-1" d="M102.35,132.28c0-2.21,0-3.16,0-3.58h1.29c0,.42,0,1.26,0,2.94a5,5,0,0,1,4.58-3.26v1.42c-2.74.19-4.58,2.08-4.58,5.21v6.84h-1.31Z"/><path class="cls-1" d="M110.27,128.7h2.44v-4.11H114v4.11h3.13v1.23H114v8.55c0,1.48.31,2.32,1.58,2.32a5,5,0,0,0,1.36-.16v1.16a4.69,4.69,0,0,1-1.63.24c-1.68,0-2.63-.85-2.63-2.95v-9.16h-2.44Z"/><path class="cls-1" d="M120.16,132.09c0-1.13,0-2.37,0-3.39h1.29c0,.45.08,1.58,0,2.34a4.12,4.12,0,0,1,4-2.66,3.72,3.72,0,0,1,3.81,2.61,4.49,4.49,0,0,1,4.29-2.61c2,0,4.13,1.16,4.13,4.82v8.65h-1.32v-8.5c0-1.76-.63-3.68-3.07-3.68s-3.71,2.05-3.71,4.61v7.57h-1.29v-8.47c0-1.92-.58-3.71-3-3.71s-3.79,2.26-3.79,5v7.23h-1.31Z"/><path class="cls-1" d="M142.81,135.43c0,3.4,1.74,5.5,4.26,5.5a3.7,3.7,0,0,0,3.79-2.47h1.34a5,5,0,0,1-5.18,3.71c-4,0-5.55-3.45-5.55-6.79,0-3.76,1.87-7,5.71-7,4,0,5.34,3.5,5.34,6,0,.37,0,.74,0,1.08Zm8.34-1.15c0-2.61-1.45-4.66-4-4.66s-3.95,1.89-4.24,4.66Z"/><path class="cls-1" d="M156.28,132c0-1.15,0-2.26,0-3.31h1.29c.06.42.08,2.13.06,2.5a4.28,4.28,0,0,1,4.36-2.82c2.34,0,4.42,1.32,4.42,5v8.52h-1.31v-8.31c0-2.34-1-3.87-3.26-3.87-3.14,0-4.21,2.61-4.21,5.47v6.71h-1.32Z"/><path class="cls-1" d="M169.2,128.7h2.45v-4.11H173v4.11h3.13v1.23H173v8.55c0,1.48.32,2.32,1.58,2.32a5.07,5.07,0,0,0,1.37-.16v1.16a4.73,4.73,0,0,1-1.63.24c-1.69,0-2.63-.85-2.63-2.95v-9.16H169.2Z"/><path class="cls-1" d="M186.72,132c0-1.15,0-2.26,0-3.31H188c.06.42.08,2.13.06,2.5a4.29,4.29,0,0,1,4.36-2.82c2.35,0,4.42,1.32,4.42,5v8.52h-1.31v-8.31c0-2.34-1-3.87-3.26-3.87-3.13,0-4.21,2.61-4.21,5.47v6.71h-1.32Z"/><path class="cls-1" d="M212.35,135.25c0,3.65-2,6.92-5.95,6.92-3.55,0-5.76-2.92-5.76-6.89,0-3.77,2.08-6.9,5.89-6.9C210,128.38,212.35,131.12,212.35,135.25Zm-10.32,0c0,3.12,1.69,5.65,4.48,5.65s4.44-2.34,4.44-5.65c0-3.11-1.58-5.66-4.5-5.66S202,132.12,202,135.28Z"/><path class="cls-2" d="M29.66,19.62l-.29.52-1.16,1.58a13.76,13.76,0,0,1-1.6,1.13,9.89,9.89,0,0,1-2.45.86l-.37-.13-.61.17-.69-.12-.78.12-.21-.17-.48.13-.55-.13h-.73L19.17,23l-1-.25-.37-.45-.4.09-.59-.63a.64.64,0,0,0-.36-.21l-.63-.19-.6-.69H14l-.32-.55h-.42l-.16-.35-.61-.21-.09-.82-.52.4-.34-.4-.77-.55-.51-.56A4.24,4.24,0,0,0,9.5,17a6.18,6.18,0,0,1-.88-.72,3.38,3.38,0,0,0-.86-.6,1.16,1.16,0,0,0-1-.74H6.5l-.09-.33-.6.12-.09-.4-.29.09-.65-.13-.46.53.21,1.49-.47.1.38,1.2a5.4,5.4,0,0,1-.52,1.93.83.83,0,0,1,.52.69,2.36,2.36,0,0,0-.33,1.11v1l-.32.69-.08.61A7.53,7.53,0,0,1,2.6,26l-.45-.34.19-.61.05-.46a1.53,1.53,0,0,1,.25-.56l-.17-.42.38-.23c-.28,0-.42-.13-.42-.38a.12.12,0,0,1,0-.09c0-.15.15-.32.46-.52l-.25-.34.33-.44.17.09a4,4,0,0,0-.34-1.24l.34-.78-.25.09a1.12,1.12,0,0,1-.17-.59,3.31,3.31,0,0,1,.25-.86,8.28,8.28,0,0,1-.11-1.27q0-.6-.12-.66c-.07,0-.1-.13-.1-.27l.25-.3L2.6,15,3,14.46l-.21-.38v-1L2.6,12l.5-.56c-.17-.09-.25-.32-.25-.7l0-.37a.93.93,0,0,0,0-.36L3,9.53,2.76,9.4V9C2.93,9,3,8.88,3,8.75l-.09-.44v-2L3,6a1.78,1.78,0,0,0,.13-.9A2.12,2.12,0,0,1,2.76,4,3.89,3.89,0,0,1,3.1,2.52a1.48,1.48,0,0,1,.61-.13,2.19,2.19,0,0,1,.82.21l.6.82L5,4.45l.29.36-.17.42.17.52-.56.9.31,1.41-.31,1,.08,1.42-.38.65.34.3.56,1c0,.06.26.13.69.22A10.09,10.09,0,0,1,7.19,13l.25-.17.44.17.38-.27.69.1.21.17a3.27,3.27,0,0,1,1.55-.86,2,2,0,0,1,.78.17V12h.38a1.68,1.68,0,0,1,1.22-.65h.16l.26-.29v0c0-.07.07-.11.2-.11h.4l1.41-.59a2,2,0,0,1,.59-.8.76.76,0,0,1,.31-.1.33.33,0,0,1,.23.09L16.74,9H17l.08-.29.57-.13.38-.69h.44c.13,0,.22-.2.29-.61a.66.66,0,0,1,.65-.63A1.5,1.5,0,0,1,20,6V5.75l.61-.08c.17-.79.4-1.22.69-1.31a2.77,2.77,0,0,0,.41-.77,4.92,4.92,0,0,1,1-1.32V2c0-.42.15-.63.44-.63s.64.25.94.74l-.25,0V2.6a3.59,3.59,0,0,1-.73.9l-.09.57-.39.13-.38,1.32-.49.57a3.27,3.27,0,0,1-.45.68,1.63,1.63,0,0,1-.32.18,3.36,3.36,0,0,0-.63.42,2.05,2.05,0,0,0,.21.65,1.23,1.23,0,0,0-1.28.69l-.48.12v.34l-.51.23-.86.94L16.34,11l-.82.61-.78.17-.67.44-1.17.25a9.93,9.93,0,0,1-2.19,1.24l-1.23.44-.86.13,1.19.9.21.29h.49l.41.7,1,.9,1.26.73.17.48,1.15.38,1,.69,1.3.7.78.71.82.23,1.15.86,1.59.5,1.24.17,2.06-.25h.82a.69.69,0,0,0,.55-.26c.15-.18.28-.26.39-.26a.4.4,0,0,1,.19.07.47.47,0,0,0,.25.07h.08c.1-.35.28-.52.55-.52h.15l.08-.48a4.07,4.07,0,0,1,1-.95l0-.33a1.83,1.83,0,0,0,.78-.42l.21.12Z"/><path class="cls-2" d="M56.52,17.48c0,.22-.12.45-.53.67l.06.15c0,.14-.18.43-.56.89a2,2,0,0,0-.57,1l-.46.12a.93.93,0,0,1-.78,1c0,.17-.11.25-.21.25h-.08a.42.42,0,0,1-.48.36l-.25.5-.61.13-.51.33a.84.84,0,0,1-.27.11l-.94.17-.34,0-.31,0-.13-.17-.38,0-.48-.61h-.21a.64.64,0,0,1-.17-.46,2.15,2.15,0,0,1-.69-1.18v-.33l-.29-.57v-.25l.21-.13-.17-.61-.32-.77L47.12,17l-.44-.69V15.19a29.94,29.94,0,0,1-.61-3.82V11.2a2.08,2.08,0,0,1-.09-.48.55.55,0,0,1,.05-.25,2.74,2.74,0,0,1-.51-1.19l-.21-.19-.9.94-.44.61-1.51,1.8-.59,1.07c-.21.46-.38.8-.5,1a5.22,5.22,0,0,1-.84,1l.13.4-.3.82-.33,0v.38h-.24l-.81,1c0,.47-.21.75-.55.82a2.37,2.37,0,0,0-.33.79c-.1.35-.26.54-.49.55l-.16.17a6.28,6.28,0,0,1-.75,1.06,7.1,7.1,0,0,1-1,.82c-.09.48-.27.77-.52.87l0,.21A1.17,1.17,0,0,1,35,24a1.91,1.91,0,0,1-1,.47c-.21,0-.37-.26-.48-.71s-.28-.72-.51-.82l-.12-.27.33-.55,0-.52.21-.21L33.1,21l0-.52-.33-1,.29-.56-.17-.59a4,4,0,0,0,.3-1.76v-.23a1.74,1.74,0,0,0-.25-.51.74.74,0,0,0,.33-.52l-.08-.67L33.48,13l-.17-.32,0-.67-.21-.4.17-1.36-.08-.48L33.35,9l-.12-1.11.29-.57a3.25,3.25,0,0,1,.85.32.72.72,0,0,1,.11.39c0,.2,0,.52,0,1l.35.57-.12.82.17,1.76-.3.94.13,1.12v.52l-.4.63.27.9a4.66,4.66,0,0,0-.31,1.18l.21.5a5.84,5.84,0,0,0-.34,1.68l0,1.55.13.21.52-.25h.42l.23-.94a.78.78,0,0,0,.59-.49c0-.33.26-.5.65-.5a.89.89,0,0,1,.3-.65c.11,0,.24-.2.4-.61a4,4,0,0,0,.69-.9v-.59h0q.16,0,.39-.3a.64.64,0,0,1,.55-.31,1.77,1.77,0,0,1,.38-.77l.61-.74.55-1.19a2.23,2.23,0,0,1-.09-.45c0-.08,0-.12.13-.12.57-.38.86-.75.86-1.11v-.53c.43-.17.65-.32.65-.46a.56.56,0,0,0-.07-.24.86.86,0,0,1-.06-.2c0-.14.06-.21.17-.21a.61.61,0,0,1,.34.13c.2-.77.53-1.16,1-1.16a1.31,1.31,0,0,1,.38.09,1.3,1.3,0,0,1,.38-1c0-.18.39-.4,1-.65l.21-.34h.17a1.9,1.9,0,0,0,.61.61l.08.3.21.08.09.82.56.33-.19.74.32,1.34v1.24l.29,1.47.13,1.53.44,1.43.08,1.42.22.41a2.87,2.87,0,0,1,.29,1l.19.12v.65l.37.42-.08.32.29.17v.2a1.38,1.38,0,0,0,.7.26,1.34,1.34,0,0,0,.65-.17.4.4,0,0,0,.21.08c.12,0,.25-.11.37-.33.41,0,.61-.16.61-.34v-.1c0-.1.33-.24.86-.42a2.46,2.46,0,0,1,.44-.42l0-.11a.9.9,0,0,1,.16-.24,3.34,3.34,0,0,1,.41-.38,1.57,1.57,0,0,0,.4-.45l.23-.46c.18-.25.45-.66.81-1.22l.59-.29h.4Z"/><path class="cls-2" d="M72,13.79l-.29.9.17.38-.15,1a1.94,1.94,0,0,1-.32.67v.51l-.31.86-.25.38a4,4,0,0,0-.42,1.09l-.32.12-.16.57-.47.29-.35.78-.63.29-.06.57-.55.21-.51.67a1.21,1.21,0,0,1-.57.29,2.61,2.61,0,0,0-.6.26c-.07.44-.47.69-1.19.75a.78.78,0,0,1-.61.32,1.13,1.13,0,0,1-.34-.09,2.44,2.44,0,0,1-1.09.63l-.34.53-.56-.34-.13.25-.63-.25-1.51-.15a6.53,6.53,0,0,0-1.11-1.53l.17-.56-.61-1.56.25-.5L58.28,20l.25-.67c0-.07,0-.25-.06-.55s-.06-.5-.06-.58a.8.8,0,0,1,.44-.71v-.23a1.93,1.93,0,0,1,.25-.95h.25a1.2,1.2,0,0,0,.31-.82l-.12-.29.12-.65v-.42a1.44,1.44,0,0,0,.38-.94l-.12-.7a.93.93,0,0,1,.12-.5c.43-.22.65-.44.65-.65a.7.7,0,0,0-.17-.44l.42-.74a.7.7,0,0,1,.27-.27,1.24,1.24,0,0,0,.22-.15l-.09-.41a.65.65,0,0,0,.67-.7,2.63,2.63,0,0,0-.12-.77,1.86,1.86,0,0,0,1.89-1.47h.27c.2-.2.33-.3.42-.3l.37.11a3.54,3.54,0,0,0,1,.1L66.53,6v.29a2.55,2.55,0,0,1,1.09.49h.58c.14.28.28.42.4.42l.09,0a3.34,3.34,0,0,0,1,1.07l.21.53.4.17.67,1,.69,2v.4ZM70.66,15a.9.9,0,0,0,.25-.52.47.47,0,0,0-.15-.31c-.09-.1-.14-.17-.14-.2h.25a.83.83,0,0,0-.3-.44l.09-.12-.29-.7.08-.94-.4-.67c-.31-.2-.46-.34-.46-.44v-.13a.21.21,0,0,0-.16-.22c-.1,0-.16-.09-.16-.18v0a4.54,4.54,0,0,1,.19-.54l-.27-.21-.42,0L68.6,9l.17-.25-.57-.3L67.78,8l-1.21-.51-.51-.1c-.82,0-1.23.23-1.21.69l.06,1.43-.86,0-1.34.82-.13.46-.48.31-.21,1.24-.42.29c-.09.05-.13.25-.13.61a2.78,2.78,0,0,0,.09.78l-.53.29c-.11.06-.17.33-.17.82a.86.86,0,0,1-.39.65v.42l-.38.61v.38l-.13.27.09.59-.57,1.38.19.46v1l-.19.71,0,1,.63.82a2,2,0,0,0,.76.46l.12.21.3-.08.27.08L62,24l1,.05.48-.13.13-.29.44,0c.45,0,.67-.15.67-.44l.61.17.13-.34.39,0,.21-.49a1.22,1.22,0,0,0,.51-.58h.69l.21-.44.73-.65.28-.4a1.26,1.26,0,0,1,.37-.36l.61-.31a5.36,5.36,0,0,1,.38-1.2l-.08-.38.61-.27-.09-.21c.17-.24.32-.44.46-.61h-.21a.72.72,0,0,0,.17-.38,1.1,1.1,0,0,0-.06-.31,1.45,1.45,0,0,1-.07-.25,1.71,1.71,0,0,1,.13-.59,1.81,1.81,0,0,0,.13-.4A.22.22,0,0,0,70.66,15Z"/><path class="cls-2" d="M101.44,6.21l-.13.61,0,.42-.52,2.16-.57.67-.21,1-.42.63-.69,1.72-.78,1.47-1.23,2-.23.65L96,18.76l-.69,1.68L94,23a4.93,4.93,0,0,1-.46,1.4,5.94,5.94,0,0,1-.9-.42l-.61-2-.78-1.43v-.42l-.58-1.55-.28-.34L89,14.9l-1.21-2.46a.47.47,0,0,0-.3-.08.87.87,0,0,0-.37.08l-.82,1.39-.74.63-1,1.51-.74.9-.37,1.24-1,1.34-.11.5a15.75,15.75,0,0,0-.67,1.56v.56l-.31.55-.46,1.26.08.17a.55.55,0,0,0-.25-.05,2,2,0,0,0-.61.21.86.86,0,0,0-.44-.29v-.21l-.34-.48-.21-1.16-.35-.73v-.57l0-.29-.59-2L77.92,17l-.3-.34,0-.44-.42-1.19v-.42l-.44-1.26-.51-.78.09-.86-.09-.42-.44-1.26-.08-.54a2.64,2.64,0,0,0-.33-.75A1.73,1.73,0,0,1,75.17,8a1,1,0,0,1,0-.33l-.29-.13-.57-1.38L74.92,6c0-.25.09-.39.19-.4l.58-.12.26.39h.44l.16.74.21.17-.08.46.13.44-.13.46.48.86-.08.61.54,2-.08.53.25,1.45.57,1.47.29,2,.4.48v.9a9.45,9.45,0,0,1,.38,1.77l.44.37.17.57h.37l2-3.61c.22,0,.34-.26.34-.78.33-.21.5-.42.5-.65a1.79,1.79,0,0,1,.27-.9.75.75,0,0,0,.25-.54,1.27,1.27,0,0,0,.61.21,1.35,1.35,0,0,1-.12-.53.29.29,0,0,1,.33-.33l.13,0a.1.1,0,0,0,.07,0s0-.06,0-.09,0-.05,0-.08.08-.21.25-.32l-.08-.37v-.21c0-.13.09-.19.16-.19s.11.06.11.19a.76.76,0,0,1,.42-.24.25.25,0,0,1,.17.05l-.09-.59.3-.4-.13-.59.23.09.08-.32.38-.17-.17-.21.17-.16,0-.21h.49a1.89,1.89,0,0,1-.57-1.26,2.12,2.12,0,0,1,.25-.9l.69-.09a9,9,0,0,1,.78,1l.15.92a3.24,3.24,0,0,0,.37.75l-.1.49.31,1v.54L89.75,14v.37l.29.28.7,1.84.08.76.46.65L92.58,21l.78.17,1.36-2.88.53-.44.29-.94.57-.29v-.74c.6-.39.9-.77.9-1.15V14h.21v-.21l.34-.28.73-1.44a3.28,3.28,0,0,1,.65-1.39l-.08-.42.6-.86L100,8a9,9,0,0,1-.51-2.46c0-.42.13-.67.38-.75l.42.16c0,.13.22.21.57.26l.08.44Z"/><path class="cls-2" d="M137.55,1.91a1.19,1.19,0,0,1-.21.48h-.46l-.32.21L136,2.39l-.69,0c-.34,0-.53,0-.6-.15a.32.32,0,0,0-.3-.15,1.49,1.49,0,0,0-.57.25,1,1,0,0,0-.54-.16,2.4,2.4,0,0,0-.85.23,2.76,2.76,0,0,1-.83.23l-.59,0a5.56,5.56,0,0,0-.59,0,.31.31,0,0,0-.33.25,1.22,1.22,0,0,0-.7-.25,2,2,0,0,0-1.23.53l-.44-.23-.38.23-1-.32-.69.4h-.78l-1.09.26a6,6,0,0,0-1,.43l-.4-.27-.75.61-.78,0-.56,1,.21.81c-.28.07-.42.44-.42,1.12l0,.35,0,.9.12.17-.29.25.17.26a2.83,2.83,0,0,0-.32,1.17c0,.63.38.94,1.14.94a2.17,2.17,0,0,0,.53-.1,1.37,1.37,0,0,1,.75,0,2.55,2.55,0,0,0,.69.1l.65-.27.67.23.44-.12.42,0,.65-.15L126,11h.1a1.77,1.77,0,0,0,.76-.28,1.6,1.6,0,0,0,.89.15,5.08,5.08,0,0,0,.74-.1l.57-.13.95.17c.08,0,.16-.09.25-.25a10.27,10.27,0,0,0,1.3.21l.46-.05,1.47.09.77-.17c.05-.17.21-.25.51-.25l1,.12.4-.08.55.21.56-.13-.12.53a3.44,3.44,0,0,1-1.11.29,2.37,2.37,0,0,1-.45-.09,4.3,4.3,0,0,0-.65-.12l-1.11.55-.94-.09-.55.21-.4-.08-.69.4-.46-.13-1.72.05a.83.83,0,0,0-.57.25l-.58-.17-.32.29-.54-.16-.32.29-.82-.38-.58.38-.7-.17a.79.79,0,0,0-.33,0,3,3,0,0,0-.88.17l-.51.16-1.55.15-.34-.19a3.89,3.89,0,0,1-1.3.36l-.33.82.4,2.22-.23.3.27.69,0,.77L120,18a6.86,6.86,0,0,1,.24,1.26l.37.42-.21.74.44-.13.78,1.2a4.89,4.89,0,0,0,2.83,1.26l.78.12a4.43,4.43,0,0,0,.9-.17l.17-.23h1a3.36,3.36,0,0,0,.92-.49c.39,0,.62-.06.69-.17l.46-.12a1.35,1.35,0,0,0,.48-.24l.59-.46a3.77,3.77,0,0,1,.65-.69l.57,0,1.07-.95a2,2,0,0,0,1.55-1.38l.29.17.13-.67.57-.05.08-.65h.13c.26,0,.45.17.56.51l-1.47,1.91-.52.12a5.49,5.49,0,0,1-1,1.32l-1.07.74-.69.65-.3,0-.52.54-2,.82-.46.61-.7-.21-.2.34-.19-.05-.34.3-1.15-.25-1.43.65-1-.4-1.76-.9a4,4,0,0,1-1.35-1.22,10.23,10.23,0,0,1-1.22-2.63,18.55,18.55,0,0,1-.62-2l.15-.61-.32-.81.32-.38-.4-2.33-.65-.81a.68.68,0,0,1-.09-.43c0-.52.13-.83.37-.95a2,2,0,0,0,.37-.2v-.28c0-.19.13-.32.4-.37l.12-.61-.12-.25V8.31l-.15-.5.48-1.3c.14-.54.25-.92.34-1.16l-.55-.69-.94.08h-.09a.57.57,0,0,1-.41-.18.51.51,0,0,1-.19-.4,1.79,1.79,0,0,1,.56-1,.67.67,0,0,0,.3-.23,5,5,0,0,1,.86-.3c.09,0,.19.07.29.21a.39.39,0,0,1,.36-.29c.42,0,.63-.13.63-.38a.64.64,0,0,0-.13-.31l1.43.08.25.48a2.36,2.36,0,0,1,1.38-.48l.3,0,.9-.21a1.84,1.84,0,0,0,.86-.29v.29a1.57,1.57,0,0,1,1.07-.33l.73,0h.13l4.09-.4.94.4.3-.53c.07.21.18.32.33.32a2.29,2.29,0,0,0,.4-.11l.47.28.31-.28.78.32.5-.13.25.21,1.39-.12.21.12C137.16,1.69,137.52,1.81,137.55,1.91Z"/><path class="cls-2" d="M159.22,3.46,159,3.9l0,.63-.44.28-.21.88a1.57,1.57,0,0,1-.4.56l-.08.57h-.46a3.76,3.76,0,0,1,.21.78c0,.22-.23.39-.7.5v.31l-.37,1.45-.36.69H156a.75.75,0,0,1,.25.53l-.55.54-1,2.59-.9,1.55v.69c0,.1-.1.24-.31.42s-.3.33-.3.44a.59.59,0,0,0,.21.34,1.48,1.48,0,0,1-.95.29l.17.48a2.6,2.6,0,0,0-.46.9c-.29.23-.44.42-.44.59a.66.66,0,0,0,0,.28h-.33v.46l-.57.35-.29.55-.87.94-1.11,1.72a1.09,1.09,0,0,1-.94.49,1.28,1.28,0,0,1-1.2-.57L145.08,22l-.09-.78-.25-.17,0-1-.48-.53v-1l-1-2.63,0-.52-.27-.48a3.18,3.18,0,0,1-.17-.88l-.29-.4-.21-.57a1.27,1.27,0,0,0-.32-.5l-.5-.46-.38-1.52-.44-.37a1.92,1.92,0,0,1-.4-.51L139.88,9a.6.6,0,0,1-.26.08c-.29,0-.44-.37-.44-1.11a1.07,1.07,0,0,1,.86-1c.51.42.87.74,1.08.94a4.92,4.92,0,0,1,.82,1.28c.33.65.63,1,.91,1.06a.2.2,0,0,0-.18.21.63.63,0,0,0,.12.29V11l.53.42-.13.37.13.86.48,1.39.12.13.09.56.21.13v.42l.52,1.89.13.73.69,1.55.55,2,.44.35V22c0,.39.3.58.9.58h.17v-.21s.09-.09.28-.15.37-.27.54-.62a.61.61,0,0,0,.2.08c.09,0,.13-.05.13-.17a1.74,1.74,0,0,0-.08-.33l1-.57a1.93,1.93,0,0,1,.11-.5,1,1,0,0,1,.25-.4l.38-.34.77-1.11.26-.77.44-.32.16-.46a1.81,1.81,0,0,1,.42-.52l0-.47.21-.08.15-.44.17.17a1.29,1.29,0,0,1-.09-.34.3.3,0,0,1,.3-.33c.08-.21.21-.32.37-.32a2.56,2.56,0,0,0,.32-1.19h.33l0-.57a4.33,4.33,0,0,0,.4-1.2l.25,0,.6-1.76.13-.17,0,.25a1.82,1.82,0,0,0,.39-.72q.09-.39.15-.39a.41.41,0,0,1,.19.08l.55-2,.4-.52V5.88l.29.08-.08-.69a3.09,3.09,0,0,0,.8-1.19c.17-.44.32-.66.48-.66a.85.85,0,0,1,.23,0l0-.25Z"/><path class="cls-2" d="M173,20.14a1.58,1.58,0,0,1,.32.72,1.85,1.85,0,0,1-.39.71,4.51,4.51,0,0,0-.6,1.15l-.31.05-.47.9-.52.08-1.15.78-.21.46-.36,0-.38.44h-.61l-.12.21-.3,0A1.07,1.07,0,0,0,167,26l-.27-.21a1.76,1.76,0,0,1-.71.21,1.33,1.33,0,0,1-.78-.21,3.94,3.94,0,0,1-.56,0l-.26-.21a1.9,1.9,0,0,1-1.55-.65v-.53l-.69-.37-.17-.44a1.63,1.63,0,0,0-.46-.55v-.34l-.48-2,.08-1.45.17-.82v-.9l.23-.78-.08-.56a.87.87,0,0,0,.29-.47,2.62,2.62,0,0,1,.25-.64c-.05-.26-.11-.61-.17-1.07l.38-.32-.38-.42a1.78,1.78,0,0,0,.3-.61L162,11.37a3.42,3.42,0,0,1,.12-.9.71.71,0,0,0,.57.38,5.2,5.2,0,0,0,.82-.17.85.85,0,0,1,0-.29.66.66,0,0,1,.33-.53,8.14,8.14,0,0,1,.95-2,1.06,1.06,0,0,0,.4-.86h.2l.22-.42.25-.1a1.48,1.48,0,0,1,.44-.63,2.85,2.85,0,0,0,1.15-1,1,1,0,0,0,.36,0s.15-.16.33-.48c.49-.17.75-.25.78-.25a.5.5,0,0,1,.38.25l.4-.09.21.17h.25a.87.87,0,0,0,.86.7h.12a.75.75,0,0,0,.28.44l-.19.08c.49.24.73.79.73,1.66l-.12.48.12,1.2-.21.19-.48,1.27-.86,1.07,0,.61A12.53,12.53,0,0,1,167.78,14c-.06.17-.15.26-.27.26a1.29,1.29,0,0,1-.34-.09l-.94.65h-.57l-.82.38-.35-.21a3.38,3.38,0,0,0-.89-.17,2.08,2.08,0,0,0-.65,1.58l-.29.35a5.16,5.16,0,0,1-.21,1.11l-.23.13.23,1.55-.23.21,0,.49,0,.58a6.86,6.86,0,0,0,.1.8c.07.43.19.69.34.75-.07.2.07.44.41.72a3.18,3.18,0,0,0,1.1.59v.25l1.11.17,1.6.08L168,24a5.09,5.09,0,0,1,.94-.56l.34-.51h.4l0-.21a3.94,3.94,0,0,0,1-.43.35.35,0,0,0,.09-.22.41.41,0,0,1,.38-.25l.12-.27a1.4,1.4,0,0,0,1.18-1.24A.8.8,0,0,1,173,20.14Zm-3.52-9.8c.11,0,.3-.18.56-.52l.13-.5a9,9,0,0,0,.61-1.13,2,2,0,0,0,.08-.59,5.08,5.08,0,0,0-.29-1.26l-.86-.3a2.32,2.32,0,0,1-.44.09L169,6a.46.46,0,0,0-.44.38,3.52,3.52,0,0,0-1.16.32l-.13.29a.32.32,0,0,0-.16,0,.27.27,0,0,0-.21.08l-.09.1a.76.76,0,0,0-.07.13l-.06.18a1.46,1.46,0,0,1-.07.19,1.38,1.38,0,0,1-.26.37l-.31.37-.61,1.16-.32.27a1.14,1.14,0,0,0-.23.55,8.64,8.64,0,0,1-1.13,2l.29.17.15.36.71.21a3.63,3.63,0,0,1,1.31-.57l.12-.25a1.3,1.3,0,0,0,.34.08.49.49,0,0,0,.39-.25l.51-.08.31-.53h.3l.21-.46a1.51,1.51,0,0,0,1.07-.53Z"/><path class="cls-2" d="M191.49,7.2l-.13.52-1.26.17-.81.61-.55.08-.69.42-.7.32a2.66,2.66,0,0,1-.81.54v.21l-.63.32-.44.69H185l-.23.67-.48.32a1.2,1.2,0,0,0-.46.46l-.42.77a1.37,1.37,0,0,0-.57,1.16l-.21-.09-.08.28-.31.21-.3.73a2,2,0,0,0-.46,1l-.4.16v.91a1.24,1.24,0,0,0-.21.46l.09.14-.42.17.12.34a6.28,6.28,0,0,1-.65,1.55l.21.55-.42.69a3.2,3.2,0,0,1,.08.65l-.08.69.19.76a1.18,1.18,0,0,0,.19.25l.31.31A2.39,2.39,0,0,1,180,25l-.57-.21.09.38-1-.17v-.57l-.12-.38.12-.69-.12-.29.08-1.47-.08-1c-.2-.07-.3-.15-.3-.25a1,1,0,0,1,.3-.52v-.63a6,6,0,0,0,0-.74l.16-.21-.16-.82.12-.65-.12-.39.12-1.16-.21-.33.13-.4-.25-.86.08-.67a5.68,5.68,0,0,0-.08-.78l.12-.21L178,10.47l-.32-.21.32-.73a2.4,2.4,0,0,1-.44-1.43V7.51a1,1,0,0,1-.25-.4,2.35,2.35,0,0,1,1.07-.69l.31.09a2.21,2.21,0,0,0,.46,1l-.08,1.07.42,3.25a.78.78,0,0,1-.25.57l.21.9-.13.65.13.7-.09.54.32.65-.19.13.15,1L180,17l.15-.84a2.74,2.74,0,0,1,.5-.76,1.38,1.38,0,0,0,.55-1.07v-.25l.27-.12s.08-.06.1-.16.08-.16.15-.16h.13l.25-.84.65-.44,0-.25h.3l-.13-.48.65-.3,0-.52.61-.09a2,2,0,0,0,.63-.81l.4-.09a4.14,4.14,0,0,1,.77-.77.25.25,0,0,0,.22-.13l.69-.38.16-.31.38-.21A3.58,3.58,0,0,1,189,7.24h.17a.87.87,0,0,0,.61-.21l.38.13a.88.88,0,0,1,.48-.21A2.14,2.14,0,0,1,191.49,7.2Z"/><path class="cls-2" d="M213.62,15.84a1,1,0,0,0-.44.78,4.12,4.12,0,0,0,0,.42l.26,1.55-.26,1.68.09.69-.21.59.12,1.89-.12.27v1.53L213,26.46l.17.42-.08,2.83.21.52-.21.26.12.77-.21.21.17.65H213l-.08.34v.65l-.21.52.08.38-.9,1.6-.08.81-.23,0-.38.51a4.89,4.89,0,0,0-.78,1.09l-.77.46a1.25,1.25,0,0,1-1.24,1,.17.17,0,0,1,0,.13c0,.1-.05.15-.17.15l-.18.16a1.67,1.67,0,0,0-.72.51h-.48l-.13.17-.56-.13-.86.57-.51-.09-1.38.21-.38,0-.21,0-1.26-.21h-.33l-.44-.4-.21,0L199.13,40l-1.08-.17-.25-.44-.69-.08-.29-.73-.4-.13-.59-.82-.61-.29-.56-.82a1.39,1.39,0,0,0-.36-.31l-.67-.38.23-.55-.4-.44,0-.25a3,3,0,0,0-.29-1.11,2.49,2.49,0,0,1-.08-.61,3,3,0,0,1,.16-.86l.17-.48v-.13l.29-.17.11-.21.17.05.1-.51c0-.21.38-.6,1-1.17l.61-.17,1-.9,1.19.08c.2-.29.37-.44.53-.44s.29.12.29.36a.46.46,0,0,1,0,.21l-.57.25-.38.31a4.14,4.14,0,0,1-1,.38l-.3.61h-.6a6.77,6.77,0,0,1-1.2,1.49l0,.82a1.89,1.89,0,0,0-.36,1.09l-.2.12.94,2.23.86.31.13.51,1.34,1.3.5.14a1.8,1.8,0,0,1,.55.32l.61.57h.69l.52.5.7-.09.29.28,2.45-.11.34-.08v.08c0,.16,0,.23.17.23s.05,0,.1-.08a1.54,1.54,0,0,1,1.11-.44h.21l1.37-.57v.19q.27-.21.27-.27h-.15a.38.38,0,0,1,.28-.09.46.46,0,0,1,.21,0c0-.25.16-.38.37-.38h.15l.08-.25q.3,0,.3-.36h0c.15,0,.27-.1.36-.31s.21-.33.37-.34l.13.1a1.22,1.22,0,0,1,.65-.9,1.51,1.51,0,0,0,.5-1.17h.24c.43-.93.74-1.65.94-2.18l-.09-.13.09-1.09.21-.13v-1l.17-.3-.38-.48a2.3,2.3,0,0,0,.38-.42,1.87,1.87,0,0,0-.09-.32,2.62,2.62,0,0,1-.08-.67v-.16l.08-1.77V23.88l-.21-.48.21-.87-.08-1V19.28L212,18.8l.16-.46-.16-.4.16-.38L212,16l-.4-.38.4-.4-.08-.33.08-.65-.21-.26.08-.52-.27-.5a1.28,1.28,0,0,1-.55.33l-.2.53-.36.21-.09.5-.69.48.09.21-.34.48-.29.09-.13.21-.65.21v.56h-.31l-.13.51-1.45,1.34-1,1.11-.52.17-.25.4-1,.9-.4.09s-.27.25-.77.69l-.13.37-.38.21h-.35l-.21.4-.46.09-.86.86-.78.12-.31.3c-.21.07-.5.17-.86.31l-.13.34a2.47,2.47,0,0,1-1,.12c-.61,0-1-.12-1.15-.37l-.86-1.47-.09-.7L194.61,21V19.58l-.16-.42.27-1.05-.19-.67.19-.19,0-.55.29-.65,0-1,.21-.57-.21-.38.42-2-.12-1.3.12-1.16-.38-1.59.17-.38-.17-.31.34-.84-.17-.36.3-.25V5.39l.48,0a1.84,1.84,0,0,0,.57.86l-.15.3.27.06-.12.54.33.61-.12.3.12.69.21.17-.29.65.25,1.11-.5.69.25.29-.25,1.64v1.51l-.19.21-.17,2.23-.46.6.08.4v1l.21.59-.21.48.09.73-.17.34.17.38v.52l.46.48.14.51.3,0,.08.25.34-.21.9.08.31-.69,1.07-.42,0,.12a.6.6,0,0,1,.33-.5,4.12,4.12,0,0,0,.73-.51,2.68,2.68,0,0,1,.91-.54l0,.23c.14-.05.21-.13.21-.23a.67.67,0,0,0-.09-.21,3.31,3.31,0,0,0,1.4-1,3.59,3.59,0,0,1,2-1.08l.52-.86.09.25v-.38a.72.72,0,0,0,.67-.69l.48-.34a.63.63,0,0,0,.42-.61v-.12a3.83,3.83,0,0,1,1.09-.57l.09-.33a9.66,9.66,0,0,0,1.07-1.43,1.93,1.93,0,0,0,.9-.86l.78-1.64,0-1,.34-.17V9l-.21-.69.13-.63L211,7.41l0-.13a1,1,0,0,1,.22-.47,2.07,2.07,0,0,0,.28-.56l.17-.12,0-.3a.88.88,0,0,1,.48-.16l.9.9.05.5,0,.42a3.44,3.44,0,0,0,.4.82l-.26.27.09.59-.09.48.36.38-.36,0v.61l-.21.78.21,1.11,0,.82.13.29-.09.78Z"/><path class="cls-2" d="M233.72,13.79l-.29.9.17.38-.15,1a2.05,2.05,0,0,1-.31.67v.51l-.32.86-.25.38a4.87,4.87,0,0,0-.42,1.09l-.32.12-.16.57-.46.29-.36.78-.63.29-.06.57-.55.21-.51.67a1.21,1.21,0,0,1-.57.29,2.61,2.61,0,0,0-.6.26c-.07.44-.47.69-1.19.75a.76.76,0,0,1-.61.32,1.13,1.13,0,0,1-.34-.09,2.44,2.44,0,0,1-1.09.63l-.33.53-.57-.34-.13.25-.63-.25-1.51-.15a6.53,6.53,0,0,0-1.11-1.53l.17-.56L220,21.63l.25-.5L220,20l.25-.67c0-.07,0-.25-.06-.55s-.06-.5-.06-.58a.8.8,0,0,1,.44-.71v-.23a1.93,1.93,0,0,1,.25-.95h.25a1.21,1.21,0,0,0,.32-.82l-.13-.29.13-.65v-.42a1.48,1.48,0,0,0,.37-.94l-.12-.7a.93.93,0,0,1,.12-.5c.44-.22.65-.44.65-.65a.75.75,0,0,0-.16-.44l.41-.74a.7.7,0,0,1,.27-.27,1.24,1.24,0,0,0,.22-.15L223,9.28a.65.65,0,0,0,.67-.7,2.63,2.63,0,0,0-.12-.77,1.86,1.86,0,0,0,1.89-1.47h.27q.3-.3.42-.3l.37.11a3.54,3.54,0,0,0,1,.1l.68-.29v.29a2.55,2.55,0,0,1,1.09.49h.58c.14.28.28.42.4.42l.09,0a3.34,3.34,0,0,0,1,1.07l.21.53.4.17.67,1,.7,2v.4ZM232.36,15a.9.9,0,0,0,.25-.52.47.47,0,0,0-.15-.31c-.09-.1-.14-.17-.14-.2h.25a.87.87,0,0,0-.29-.44l.08-.12-.29-.7.08-.94-.4-.67c-.31-.2-.46-.34-.46-.44v-.13a.21.21,0,0,0-.16-.22c-.1,0-.16-.09-.16-.18v0a4.54,4.54,0,0,1,.19-.54l-.27-.21-.42,0L230.3,9l.17-.25-.57-.3L229.48,8l-1.21-.51-.51-.1c-.82,0-1.23.23-1.21.69l.06,1.43-.86,0-1.34.82-.13.46-.48.31-.21,1.24-.42.29c-.08.05-.13.25-.13.61a2.78,2.78,0,0,0,.09.78l-.53.29c-.11.06-.16.33-.16.82a.87.87,0,0,1-.4.65v.42l-.38.61v.38l-.13.27.09.59-.57,1.38.19.46v1l-.19.71,0,1,.63.82a2,2,0,0,0,.76.46l.12.21.3-.08.27.08.5-.21,1,.05.48-.13.13-.29.44,0c.45,0,.67-.15.67-.44l.61.17.13-.34.39,0,.21-.49a1.22,1.22,0,0,0,.51-.58H229l.21-.44.73-.65.28-.4a1.39,1.39,0,0,1,.37-.36l.61-.31a5.36,5.36,0,0,1,.38-1.2l-.08-.38.61-.27-.09-.21c.17-.24.32-.44.46-.61h-.21a.65.65,0,0,0,.17-.38,1.1,1.1,0,0,0-.06-.31,1.14,1.14,0,0,1-.06-.25,1.68,1.68,0,0,1,.12-.59,1.37,1.37,0,0,0,.13-.4A.22.22,0,0,0,232.36,15Z"/><path class="cls-2" d="M262.53,17.48c.06.22-.12.45-.52.67l.06.15c0,.14-.19.43-.57.89a2,2,0,0,0-.56,1l-.47.12a.93.93,0,0,1-.77,1c0,.17-.11.25-.21.25h-.09a.42.42,0,0,1-.48.36l-.25.5-.61.13-.5.33a.84.84,0,0,1-.27.11l-1,.17-.34,0-.31,0-.13-.17-.37,0-.49-.61h-.21a.63.63,0,0,1-.16-.46,2.19,2.19,0,0,1-.7-1.18v-.33l-.29-.57v-.25l.21-.13-.17-.61-.31-.77.06-1.16-.44-.69V15.19a29.94,29.94,0,0,1-.61-3.82V11.2a2.57,2.57,0,0,1-.08-.48.57.57,0,0,1,0-.25,2.58,2.58,0,0,1-.5-1.19l-.21-.19-.91.94-.44.61-1.51,1.8-.59,1.07a9.8,9.8,0,0,1-.5,1,4.52,4.52,0,0,1-.84,1l.13.4-.29.82-.34,0v.38h-.23l-.82,1c0,.47-.21.75-.55.82a2.88,2.88,0,0,0-.33.79c-.1.35-.26.54-.48.55l-.17.17a6.28,6.28,0,0,1-.75,1.06,6.93,6.93,0,0,1-1,.82c-.1.48-.28.77-.53.87l0,.21A1,1,0,0,1,241,24a1.87,1.87,0,0,1-1,.47c-.21,0-.37-.26-.48-.71a1.13,1.13,0,0,0-.5-.82l-.13-.27.34-.55,0-.52.21-.21-.21-.38,0-.52-.34-1,.3-.56-.17-.59a4.18,4.18,0,0,0,.29-1.76v-.23a1.49,1.49,0,0,0-.25-.51.76.76,0,0,0,.34-.52l-.09-.67.25-1.64-.16-.32,0-.67-.21-.4.17-1.36-.09-.48.13-.78-.13-1.11.3-.57a3.09,3.09,0,0,1,.84.32.72.72,0,0,1,.11.39c0,.2,0,.52,0,1l.36.57-.13.82.17,1.76-.29.94.12,1.12v.52l-.4.63.28.9a4.49,4.49,0,0,0-.32,1.18l.21.5a5.42,5.42,0,0,0-.33,1.68l0,1.55.12.21.53-.25h.42l.23-.94a.81.81,0,0,0,.59-.49c0-.33.25-.5.65-.5a.92.92,0,0,1,.29-.65c.11,0,.24-.2.4-.61a4,4,0,0,0,.69-.9v-.59h0q.17,0,.39-.3a.65.65,0,0,1,.56-.31,1.67,1.67,0,0,1,.37-.77l.61-.74.55-1.19a2.23,2.23,0,0,1-.09-.45c0-.08,0-.12.13-.12.57-.38.86-.75.86-1.11v-.53c.43-.17.65-.32.65-.46a.69.69,0,0,0-.06-.24.86.86,0,0,1-.06-.2c0-.14.05-.21.16-.21a.61.61,0,0,1,.34.13c.21-.77.53-1.16,1-1.16a1.24,1.24,0,0,1,.38.09,1.34,1.34,0,0,1,.38-1c.06-.18.39-.4,1-.65l.21-.34h.16a1.9,1.9,0,0,0,.61.61l.09.3.21.08.08.82.57.33-.19.74.31,1.34v1.24l.3,1.47.12,1.53.44,1.43.09,1.42a4,4,0,0,0,.22.41,3.13,3.13,0,0,1,.28,1l.19.12v.65l.38.42-.09.32.3.17v.2a1.16,1.16,0,0,0,1.34.09.46.46,0,0,0,.21.08c.13,0,.25-.11.38-.33.4,0,.6-.16.6-.34v-.1c.05-.1.33-.24.87-.42a1.93,1.93,0,0,1,.44-.42l-.05-.11a.9.9,0,0,1,.16-.24,3.34,3.34,0,0,1,.41-.38,1.43,1.43,0,0,0,.4-.45l.23-.46c.18-.25.45-.66.82-1.22l.59-.29h.39Z"/><path class="cls-2" d="M276.15,20.14a1.53,1.53,0,0,1,.31.72,1.85,1.85,0,0,1-.39.71,4.48,4.48,0,0,0-.59,1.15l-.32.05-.46.9-.53.08-1.15.78-.21.46-.36,0-.37.44h-.61l-.13.21-.29,0a1.06,1.06,0,0,0-.82.42l-.27-.21a1.79,1.79,0,0,1-.72.21,1.28,1.28,0,0,1-.77-.21,4,4,0,0,1-.57,0l-.25-.21A1.87,1.87,0,0,1,266.1,25v-.53l-.7-.37-.16-.44a1.77,1.77,0,0,0-.46-.55v-.34l-.49-2,.09-1.45.16-.82v-.9l.24-.78-.09-.56a.82.82,0,0,0,.29-.47,2.69,2.69,0,0,1,.26-.64c-.06-.26-.11-.61-.17-1.07l.38-.32-.38-.42a1.89,1.89,0,0,0,.29-.61l-.21-1.28a3.43,3.43,0,0,1,.13-.9.7.7,0,0,0,.57.38,5,5,0,0,0,.81-.17.85.85,0,0,1,0-.29.65.65,0,0,1,.34-.53,8.1,8.1,0,0,1,.94-2,1,1,0,0,0,.4-.86h.21l.21-.42.25-.1a1.58,1.58,0,0,1,.44-.63,2.86,2.86,0,0,0,1.16-1,.87.87,0,0,0,.35,0s.16-.16.34-.48c.49-.17.75-.25.78-.25a.49.49,0,0,1,.37.25l.4-.09.21.17h.25a.88.88,0,0,0,.86.7h.13a.7.7,0,0,0,.27.44l-.19.08c.49.24.74.79.74,1.66l-.13.48.13,1.2-.21.19-.49,1.27-.86,1.07,0,.61A12.53,12.53,0,0,1,271,14c0,.17-.14.26-.27.26a1.26,1.26,0,0,1-.33-.09l-.95.65h-.56l-.82.38-.36-.21a3.27,3.27,0,0,0-.88-.17,2.08,2.08,0,0,0-.65,1.58l-.29.35a4.48,4.48,0,0,1-.22,1.11l-.23.13.23,1.55-.23.21.05.49-.05.58a8,8,0,0,0,.11.8c.07.43.18.69.34.75-.07.2.06.44.4.72a3.23,3.23,0,0,0,1.11.59v.25l1.11.17,1.59.08,1.07-.13a5.07,5.07,0,0,1,.95-.56l.33-.51h.4l0-.21a3.59,3.59,0,0,0,1-.43.35.35,0,0,0,.09-.22.42.42,0,0,1,.38-.25l.13-.27a1.38,1.38,0,0,0,1.17-1.24A.8.8,0,0,1,276.15,20.14Zm-3.53-9.8c.11,0,.3-.18.57-.52l.12-.5a7.78,7.78,0,0,0,.61-1.13A1.7,1.7,0,0,0,274,7.6a4.79,4.79,0,0,0-.3-1.26l-.86-.3a2.18,2.18,0,0,1-.44.09L272.16,6a.46.46,0,0,0-.44.38,3.48,3.48,0,0,0-1.15.32l-.13.29a.35.35,0,0,0-.17,0,.2.2,0,0,0-.11,0,.21.21,0,0,0-.1.06l-.08.1a.4.4,0,0,0-.07.13,1.34,1.34,0,0,0-.07.18l-.06.19a1.68,1.68,0,0,1-.26.37l-.32.37-.61,1.16-.31.27a1,1,0,0,0-.23.55,9.56,9.56,0,0,1-1.13,2l.29.17.15.36.71.21a3.59,3.59,0,0,1,1.3-.57l.13-.25a1.25,1.25,0,0,0,.33.08.52.52,0,0,0,.4-.25l.5-.08.32-.53h.29l.21-.46a1.47,1.47,0,0,0,1.07-.53Z"/></g></g></svg>