<svg xmlns="http://www.w3.org/2000/svg" viewBox="0 0 87.26 87.26"><defs><style>.cls-1{fill:#00a99d;}.cls-2{fill:#f1f2f2;}</style></defs><title>linkedin</title><g id="Layer_2" data-name="Layer 2"><g id="Layer_1-2" data-name="Layer 1"><circle class="cls-1" cx="43.63" cy="43.63" r="43.63"/><path class="cls-2" d="M67.87,47.44V63.88H58.34V48.54c0-3.85-1.38-6.48-4.83-6.48a5.21,5.21,0,0,0-4.89,3.48,6.38,6.38,0,0,0-.32,2.33v16H38.76s.13-26,0-28.67H48.3v4.06a.47.47,0,0,0-.06.09h.06v-.09a9.47,9.47,0,0,1,8.59-4.74c6.28,0,11,4.1,11,12.91ZM28.79,21.38c-3.26,0-5.4,2.14-5.4,5a4.94,4.94,0,0,0,5.27,4.95h.07c3.32,0,5.39-2.2,5.39-4.95a5,5,0,0,0-5.33-5ZM24,63.88h9.53V35.21H24Z"/></g></g></svg>