<svg xmlns="http://www.w3.org/2000/svg" viewBox="0 0 335.17 38.61"><defs><style>.cls-1,.cls-2{fill:#fff;}.cls-1{stroke:#fff;stroke-miterlimit:10;stroke-width:1.4px;}</style></defs><title>logotop</title><g id="Layer_2" data-name="Layer 2"><g id="Layer_1-2" data-name="Layer 1"><path class="cls-1" d="M95.51,8.87V23.15c0,6.27,3.09,7.88,6,7.88,3.45,0,6-1.65,6-7.88V8.87h1.61V23.05c0,7.38-3.41,9.67-7.68,9.67-4.06,0-7.59-2.53-7.59-9.37V8.87Z"/><path class="cls-1" d="M127.11,20.86h-10.5v9.9h11.5l-.23,1.69H115V8.87h12.62v1.68h-11v8.63h10.5Z"/><path class="cls-1" d="M150.12,21.6c0-4.61,0-9,.12-11.39h-.09c-.82,3.17-5,14.79-7.62,22.24H141c-2-5.76-6.3-18.7-7.24-22.27h-.06c.15,2.69.21,8.19.21,12.23v10h-1.59V8.87h2.38c2.83,8.08,6.39,18.66,7.15,21.32h.06c.47-1.72,4.59-13.47,7.47-21.32h2.36V32.45h-1.59Z"/><path class="cls-1" d="M157.89,8.87h1.59V21.13C161.13,19.31,167,13,170.69,8.87h2.12l-9.24,10,9.77,13.54h-2l-9-12.36-2.94,3v9.4h-1.59Z"/><path class="cls-1" d="M183.85,8.87h7.35c3.77,0,6.35,2.39,6.35,6.56S195,22.17,191,22.17h-5.53V32.45h-1.61Zm1.61,11.62h5.68c3.33,0,4.71-2,4.71-5,0-3.16-1.83-4.95-4.59-4.95h-5.8Z"/><path class="cls-1" d="M202.68,7.62V18.43a5.08,5.08,0,0,1,4.85-3.23c2.09,0,5,1.21,5,6.54V32.45H211V22.07c0-3.33-1.32-5.22-3.76-5.22-2.92,0-4.59,2.06-4.59,6.2v9.4H201.2V7.62Z"/><path class="cls-1" d="M229.36,24c0,4.69-2.26,8.86-6.65,8.86-4,0-6.44-3.74-6.44-8.82,0-4.82,2.33-8.83,6.59-8.83C226.77,15.2,229.36,18.7,229.36,24Zm-11.53,0c0,4,1.88,7.24,5,7.24s5-3,5-7.24c0-4-1.76-7.25-5-7.25S217.83,20,217.83,24Z"/><path class="cls-1" d="M233.13,19.85c0-1.48,0-2.9,0-4.25h1.44c.06.54.09,2.73.06,3.2a4.88,4.88,0,0,1,4.88-3.6c2.62,0,5,1.68,5,6.33V32.45H243V21.8c0-3-1.09-4.95-3.65-4.95-3.5,0-4.71,3.34-4.71,7v8.59h-1.47Z"/><path class="cls-1" d="M249.7,24.23c0,4.35,1.94,7,4.76,7a4.22,4.22,0,0,0,4.24-3.17h1.5c-.62,2.23-2.18,4.75-5.8,4.75-4.47,0-6.2-4.41-6.2-8.69,0-4.82,2.09-9,6.38-9,4.53,0,6,4.48,6,7.65,0,.47,0,.94,0,1.38ZM259,22.75c0-3.34-1.62-6-4.5-6-3,0-4.41,2.43-4.73,6Z"/><path class="cls-1" d="M272.5,8.87h7.18c3.94,0,6.06,2.39,6.06,5.79,0,2.8-1.47,4.62-3.18,5.16a5.82,5.82,0,0,1,3.92,5.82c0,4.72-3.09,6.81-6.68,6.81h-7.3ZM279.15,19c3.56,0,4.91-1.52,4.91-4.25a4,4,0,0,0-4.29-4.21h-5.71V19Zm-5.09,11.75h5.8a4.62,4.62,0,0,0,5-5c0-3-1.68-5.06-5.83-5.06h-4.94Z"/><path class="cls-1" d="M302.72,24c0,4.69-2.27,8.86-6.65,8.86-4,0-6.44-3.74-6.44-8.82,0-4.82,2.32-8.83,6.59-8.83C300.13,15.2,302.72,18.7,302.72,24Zm-11.53,0c0,4,1.88,7.24,5,7.24s5-3,5-7.24c0-4-1.77-7.25-5-7.25S291.19,20,291.19,24Z"/><path class="cls-1" d="M318.58,24c0,4.69-2.27,8.86-6.65,8.86-4,0-6.44-3.74-6.44-8.82,0-4.82,2.32-8.83,6.59-8.83C316,15.2,318.58,18.7,318.58,24Zm-11.53,0c0,4,1.88,7.24,5,7.24s5-3,5-7.24c0-4-1.77-7.25-5-7.25S307.05,20,307.05,24Z"/><path class="cls-1" d="M323.82,24.3c1.35-1.65,5.47-6.44,7.44-8.7h1.88l-5.82,6.71,6.56,10.14h-1.83l-5.79-9.06-2.44,2.69v6.37h-1.47V7.62h1.47Z"/><polygon class="cls-2" points="34.83 32.12 39.98 37.36 45.13 32.12 34.83 32.12"/><path class="cls-2" d="M80,0,53.18,7.85l-2.55,8.69-8.3,3.3L42.26,15l.23-2.62,2.8-3.14-7,2.23L33,14.26l5.93.83-1.78,4.58-7.86-3.13L26.77,7.85,0,0,4.28,5.75,16.05,10H8l-.41.11c.81,1.09,1.59,2.19,2.38,3.3l10,1.54-6,4.09,11.2,2.42,8,8.19H46.83l8-8.19,11.21-2.42-6-4.09,10-1.54c.78-1.11,1.57-2.21,2.38-3.3L72,10H63.9L75.68,5.75Z"/><polygon class="cls-2" points="13.92 22.32 38.08 38.61 24.07 24.76 13.92 22.32"/><polygon class="cls-2" points="41.91 38.61 66.07 22.32 55.92 24.76 41.91 38.61"/></g></g></svg>