<svg xmlns="http://www.w3.org/2000/svg" viewBox="0 0 139.9 24.48"><defs><style>.cls-1{fill:#e6e6e6;}</style></defs><title>logo-mark</title><g id="Layer_2" data-name="Layer 2"><g id="Layer_1-2" data-name="Layer 1"><rect class="cls-1" y="1.29" width="6.37" height="22.84"/><path class="cls-1" d="M18.34,7.08A8.81,8.81,0,0,0,12,9.6a8.32,8.32,0,0,0-2.59,6.2A8.26,8.26,0,0,0,11.94,22a8.77,8.77,0,0,0,6.35,2.49,9,9,0,0,0,5.63-1.95L20.3,18.22a2.55,2.55,0,0,1-1.84.94,2.26,2.26,0,0,1-1.9-1,4.42,4.42,0,0,1-.72-2.63A4.11,4.11,0,0,1,16.59,13a2.3,2.3,0,0,1,1.94-1,2,2,0,0,1,2.12,1.86H17.42a4.63,4.63,0,0,0-.31,1.64,4.47,4.47,0,0,0,.23,1.32H27c0-.54.07-.93.07-1.17a8.16,8.16,0,0,0-2.52-6.08A8.48,8.48,0,0,0,18.34,7.08Z"/><path class="cls-1" d="M37.75,7.11a8.61,8.61,0,0,0-6.27,2.53A8.28,8.28,0,0,0,28.9,15.8,8.29,8.29,0,0,0,31.45,22a8.81,8.81,0,0,0,6.39,2.48,9.72,9.72,0,0,0,1.43-.13V17.87a3,3,0,0,1-1.55.44A2.31,2.31,0,0,1,36,17.64a2.35,2.35,0,0,1-.66-1.71,2.31,2.31,0,0,1,.73-1.71,2.4,2.4,0,0,1,1.74-.72,2.2,2.2,0,0,1,1.76.79,3.22,3.22,0,0,1,.65,2.11v7.73h6.37V16a8.73,8.73,0,0,0-2.37-6.47A8.8,8.8,0,0,0,37.75,7.11Z"/><path class="cls-1" d="M52.55,9.24a8.13,8.13,0,0,0-2,5.77v9.12h6.37V16.21c0-1.74.58-2.61,1.73-2.61a2.58,2.58,0,0,1,1.21.37V7.28a13.73,13.73,0,0,0-1.94-.19A7,7,0,0,0,52.55,9.24Z"/><path class="cls-1" d="M69.51,7.09a7.25,7.25,0,0,0-5.38,2.24,7.56,7.56,0,0,0-2.2,5.5v9.3H68.3V14.71c0-1,.4-1.44,1.19-1.44s1.21.48,1.21,1.44v9.42h6.37v-8.8a8.48,8.48,0,0,0-1.72-5.64A7.28,7.28,0,0,0,69.51,7.09Z"/><path class="cls-1" d="M89.65,7.11c-.38,0-1,0-1.7.1v6.9a3,3,0,0,1,1.6-.61,2.22,2.22,0,0,1,1.67.7,2.35,2.35,0,0,1,.68,1.71,2.24,2.24,0,0,1-.72,1.68,2.44,2.44,0,0,1-1.77.7Q87,18.29,87,15V1.29H80.61v13.9a9.26,9.26,0,0,0,2,6.24,8.25,8.25,0,0,0,3,2.21A9.21,9.21,0,0,0,95.76,22a8.22,8.22,0,0,0,2.61-6.17,8.36,8.36,0,0,0-2.56-6.13A8.45,8.45,0,0,0,89.65,7.11Z"/><rect class="cls-1" x="101.37" y="7.45" width="6.37" height="16.68"/><path class="cls-1" d="M104.57,0a3.14,3.14,0,0,0-2.24.9A2.8,2.8,0,0,0,101.39,3a2.77,2.77,0,0,0,.89,2.14,3.54,3.54,0,0,0,4.58,0A2.77,2.77,0,0,0,107.75,3,2.8,2.8,0,0,0,106.81.9,3.14,3.14,0,0,0,104.57,0Z"/><path class="cls-1" d="M113.7,9.24a8.13,8.13,0,0,0-2,5.77v9.12h6.37V16.21c0-1.74.58-2.61,1.73-2.61A2.58,2.58,0,0,1,121,14V7.28a13.73,13.73,0,0,0-1.94-.19A7,7,0,0,0,113.7,9.24Z"/><path class="cls-1" d="M133.54,1.29V15c0,2.22-.82,3.33-2.45,3.33a2.45,2.45,0,0,1-1.76-.7,2.19,2.19,0,0,1-.73-1.66,2.37,2.37,0,0,1,.71-1.72A2.3,2.3,0,0,1,131,13.5a2.56,2.56,0,0,1,1.57.61V7.21c-.76-.06-1.33-.1-1.71-.1a8.36,8.36,0,0,0-6.12,2.58,8.31,8.31,0,0,0-2.59,6.11,8.22,8.22,0,0,0,2.6,6.15,9.21,9.21,0,0,0,10.12,1.69,8.2,8.2,0,0,0,3-2.21,9.3,9.3,0,0,0,2-6.24V1.29Z"/></g></g></svg>