<svg xmlns="http://www.w3.org/2000/svg" viewBox="0 0 85.67 85.67"><defs><style>.cls-1{fill:#00a99d;}.cls-2{fill:#fff;}</style></defs><title>scroll</title><g id="Layer_2" data-name="Layer 2"><g id="Layer_1-2" data-name="Layer 1"><path class="cls-1" d="M42.84,0A42.84,42.84,0,1,0,85.67,42.84,42.84,42.84,0,0,0,42.84,0ZM66.37,42.37a4.69,4.69,0,0,1-6.62,0L47.52,30V67.1a4.69,4.69,0,1,1-9.37,0V30L25.92,42.34a4.68,4.68,0,0,1-6.66-6.59L39.51,15.28a4.67,4.67,0,0,1,6.64,0S66.41,35.75,66.41,35.75A4.68,4.68,0,0,1,66.37,42.37Z"/><path class="cls-2" d="M66.37,42.37a4.69,4.69,0,0,1-6.62,0L47.52,30V67.1a4.69,4.69,0,1,1-9.37,0V30L25.92,42.34a4.68,4.68,0,0,1-6.66-6.59L39.51,15.28a4.67,4.67,0,0,1,6.64,0S66.41,35.75,66.41,35.75A4.68,4.68,0,0,1,66.37,42.37Z"/></g></g></svg>