<svg xmlns="http://www.w3.org/2000/svg" viewBox="0 0 35.33 32.49"><defs><style>.cls-1{fill:#029ca8;}</style></defs><title>search</title><g id="Layer_2" data-name="Layer 2"><g id="Layer_1-2" data-name="Layer 1"><path class="cls-1" d="M34.83,30.59l-11-9.44a12.78,12.78,0,1,0-1.2,1.41l11,9.43ZM3.51,18.39a11.09,11.09,0,1,1,11.27,6.05A11.11,11.11,0,0,1,3.51,18.39Z"/><path class="cls-1" d="M33.63,32.49a.49.49,0,0,1-.32-.12L22.62,23.24a13.62,13.62,0,1,1,1.84-2.17l10.7,9.14a.49.49,0,0,1,.05.7L34,32.32a.47.47,0,0,1-.34.17Zm-11-10.43a.5.5,0,0,1,.33.12l10.66,9.11.55-.64L23.46,21.53a.52.52,0,0,1-.07-.69A12.47,12.47,0,0,0,24.7,8.18a12.53,12.53,0,0,0-13.27-7,12.43,12.43,0,1,0,10.81,21A.5.5,0,0,1,22.59,22.06Zm-9.16,3A11.58,11.58,0,0,1,3.23,8a11.58,11.58,0,1,1,11.61,17A11.12,11.12,0,0,1,13.43,25Zm0-22.18a9.31,9.31,0,0,0-1.29.08A10.61,10.61,0,0,0,4,18.17H4A10.59,10.59,0,1,0,13.44,2.85Z"/></g></g></svg>