<svg xmlns="http://www.w3.org/2000/svg" viewBox="0 0 591.16 427.95"><defs><style>.cls-1{fill:#00a99d;}.cls-2,.cls-3{fill:#fff;}.cls-3{stroke:#000;stroke-miterlimit:10;stroke-width:1.17px;}</style></defs><title>sketch</title><g id="Layer_2" data-name="Layer 2"><g id="Layer_1-2" data-name="Layer 1"><path class="cls-1" d="M264.73,68.93C229.21,62.64,193.34,56.32,157.33,58S84.62,70.1,57.06,93.79C19.16,126.38,3.81,179.13.35,229.54-.76,245.68-2.15,313.89,47.09,367c32.74,35.33,71.17,45.7,95.8,52.34,16.75,4.52,95.53,23.77,167.15-16.27a118.73,118.73,0,0,0,18.65-12.54c8.68-7.24,10.49-10.62,16.93-15.28,9.32-6.74,18.49-8.76,25.4-10.2,34.58-7.21,73.73,6.56,122.59-.5,28-4,40.84-12.25,44.2-14.5,19.05-12.68,27.92-30.05,34.34-43,17.36-35,22.52-78,16.75-116.54-3-20.31-9.1-40.56-21.68-56.94-13-16.85-31.2-28.59-43.68-45.89-19.47-27-32.45-50.53-61.28-68.63-50-31.42-110.5-15.47-125.61-11.48C282.44,21.9,249.44,56.85,236.52,72.28"/><path d="M68.25,251.21c1.77.68,3.57,1.3,5.3,2,4.83,2.12,9.7,4.18,14.43,6.49a27.39,27.39,0,0,1,6.45,4.16q51.78,46.82,103.45,93.76l20.27,18.4,1.52,1.36c1.93-1.22,1.13-1.94.31-2.68q-7.72-7-15.43-14-12.21-11.08-24.39-22.19c-.56-.51-1.08-1.08-1.77-1.78,1.8-2,3.46-4,5.29-5.8a2.13,2.13,0,0,1,2,.16c2.46,2.07,4.81,4.27,7.19,6.43l37.95,34.51c2,1.78,2,1.79-.15,4.15l-8.09,9.05c2.26,2,4.41,3.92,6.53,5.85,3.24,2.95,2.88,2.33-.25,5.8-3.65,4-2.69,4.07-6.31.88-2-1.78-4-3.58-6-5.33-.27.07-.44.06-.53.14-2.53,2.18-2.54,2.2-4.69.25Q146.8,334.25,82.26,275.5c-2.87-2.62-4.66-6.47-6.7-9.93-2.22-3.75-4.12-7.71-6.19-11.56-.45-.82-1-1.55-1.55-2.32ZM218.7,378.76c-2.19-2-4.3-3.83-6.38-5.71l-98.09-89c-5.81-5.27-11.61-10.55-17.47-15.75-.47-.41-1.82-.63-2.12-.32-2.74,2.86-5.34,5.85-8.29,9.14L209.68,388.85Zm5.44,2.49c1.77-2,3.17-3.73,4.75-5.27s1.27-2.26.07-3.34q-20.9-18.84-41.71-37.79c-3-2.75-3-2.74-6.06,1.09a5,5,0,0,0-.42.76c.49.52,1,1.11,1.52,1.62q7.2,6.56,14.42,13.08,12.57,11.39,25.13,22.78c1,.92,1.68,1.73.19,3.28a2,2,0,0,0,0,1.85A12,12,0,0,0,224.14,381.25ZM89.67,262.16,72.05,254.5l-.51.58,9.53,16.7ZM229.41,394l-8-7.12-3.7,4.14,8,7.12Zm-15.52-1.54,8.77-9.81-2.85-2.54-8.77,9.8ZM91,263.28l-8.79,9.82,3,2.68L94,266Z"/><path class="cls-2" d="M218.7,378.76l-9,10.09L86.35,277.09c3-3.29,5.55-6.28,8.29-9.14.3-.31,1.65-.09,2.12.32,5.86,5.2,11.66,10.48,17.47,15.75l98.09,89C214.4,374.93,216.51,376.8,218.7,378.76Z"/><path class="cls-2" d="M224.14,381.25a12,12,0,0,1-2.08-1.94,2,2,0,0,1,0-1.85c1.49-1.55.84-2.36-.19-3.28q-12.59-11.37-25.13-22.78-7.22-6.54-14.42-13.08c-.55-.51-1-1.1-1.52-1.62a5,5,0,0,1,.42-.76c3-3.83,3-3.84,6.06-1.09q20.85,18.9,41.71,37.79c1.2,1.08,1.47,1.86-.07,3.34S225.91,379.26,224.14,381.25Z"/><path class="cls-2" d="M89.67,262.16l-8.6,9.62-9.53-16.7.51-.58Z"/><path class="cls-2" d="M229.41,394l-3.7,4.14-8-7.12,3.7-4.14Z"/><path class="cls-2" d="M213.89,392.46,211,389.91l8.77-9.8,2.85,2.54Z"/><path class="cls-2" d="M91,263.28,94,266l-8.79,9.83-3-2.68Z"/><path d="M490.08,382.33c4,3.41,7.78,6.65,11.55,9.93a5.05,5.05,0,0,1,.79,1.27,5.72,5.72,0,0,1-1.34.41c-2.46.08-4.91.11-7.57.16.25,3,.46,5.48.61,7.92a5.9,5.9,0,0,1-.29,1.46,6.45,6.45,0,0,1-1.26-.63c-3.8-3.23-7.59-6.5-11.48-9.83-.46.47-.89.86-1.27,1.29-2.65,3.06-5.28,6.13-7.92,9.2-1.56,1.81-1.9,1.83-3.74.26L385,332.37l-12.52-10.75c-1.57-1.35-1.6-1.87-.23-3.47q29.92-34.86,59.86-69.73c2.66-3.11,5-3.28,8.05-.63l90.85,78c1.31,1.12,2.46,2.3,2.51,4.17a5.44,5.44,0,0,1-1.66,3.76q-7.2,8.37-14.39,16.76L491.24,381C490.9,381.38,490.55,381.78,490.08,382.33Zm-14.34,12-.53.46c-.59-.46-1.2-.88-1.76-1.37q-45.7-39.19-91.38-78.42a3.94,3.94,0,0,1-.71-.63,10.21,10.21,0,0,1-.58-1.2,7.85,7.85,0,0,1,1.29.32,3.2,3.2,0,0,1,.73.61L404.85,333l1.24,1.07L443.94,290,417.6,267.38l-45,52.48,97.54,83.73,45-52.48-36.77-31.57-37.86,44.1,7.61,6.54q13.2,11.32,26.38,22.66A11.3,11.3,0,0,1,475.74,394.34Zm-36.26-31.73,37.78-44L445.13,291l-37.78,44Zm85.11-22.26,6.14-7.15c2.28-2.66,2.16-4.27-.5-6.56l-32.06-27.52L496.9,298l-9.17,10.68Zm-28.85-43.13-32.22-27.65-9,10.54c.52.49,1,.94,1.43,1.34l26.67,22.93c1,.85,2.05,1.66,3,2.55.75.69,1.27.74,2-.15,1.28-1.64,2.7-3.18,4.06-4.77S494.33,298.86,495.74,297.22ZM462.45,268.6c-.34-.35-.57-.62-.84-.85Q450.29,258,439,248.3c-1.93-1.65-3.95-1.48-5.62.43-1.88,2.16-3.67,4.39-5.59,6.52-.84.93-.74,1.48.2,2.27,8.07,6.86,16.09,13.76,24.14,20.64.4.34.86.63,1.32,1Z"/><path class="cls-2" d="M475.74,394.34a11.3,11.3,0,0,0-1.23-1.5q-13.17-11.35-26.38-22.66l-7.61-6.54,37.86-44.1,36.77,31.57-45,52.48-97.54-83.73,45-52.48L443.94,290l-37.85,44.09L404.85,333,382.8,314.11a3.2,3.2,0,0,0-.73-.61,7.85,7.85,0,0,0-1.29-.32,10.21,10.21,0,0,0,.58,1.2,3.94,3.94,0,0,0,.71.63q45.69,39.21,91.38,78.42c.56.49,1.17.91,1.76,1.37Z"/><path class="cls-2" d="M439.48,362.61,407.35,335l37.78-44,32.13,27.57Zm-13.27-16a5.73,5.73,0,0,0,1.15-.83q14.92-17.34,29.81-34.73a7.37,7.37,0,0,0,.71-1.46C456.39,309.91,426.26,344.85,426.21,346.59Zm-12-10.34.47.32a7,7,0,0,0,1-.78q14.94-17.37,29.83-34.78a3.56,3.56,0,0,0,.41-1.29c-.44.19-1,.26-1.31.59Q429.71,317.62,414.86,335A5.89,5.89,0,0,0,414.22,336.25Zm37.61-31.45-.3-.32a10.78,10.78,0,0,0-1.3,1.12q-9.75,11.31-19.45,22.64c-3.32,3.87-6.64,7.72-9.94,11.6a10.7,10.7,0,0,0-.95,1.71C421.53,341.13,451.65,306.08,451.83,304.8Z"/><path class="cls-2" d="M524.59,340.35l-36.86-31.64L496.9,298l1.27,1.09,32.06,27.52c2.66,2.29,2.78,3.9.5,6.56Z"/><path class="cls-2" d="M495.74,297.22c-1.41,1.64-2.77,3.21-4.12,4.79s-2.78,3.13-4.06,4.77c-.7.89-1.22.84-2,.15-1-.89-2-1.7-3-2.55L455.9,281.45c-.47-.4-.91-.85-1.43-1.34l9-10.54Z"/><path class="cls-2" d="M462.45,268.6l-9,10.53c-.46-.34-.92-.63-1.32-1-8-6.88-16.07-13.78-24.14-20.64-.94-.79-1-1.34-.2-2.27,1.92-2.13,3.71-4.36,5.59-6.52,1.67-1.91,3.69-2.08,5.62-.43q11.34,9.7,22.65,19.45C461.88,268,462.11,268.25,462.45,268.6Z"/><path d="M426.21,346.59c.05-1.74,30.18-36.68,31.67-37a7.37,7.37,0,0,1-.71,1.46q-14.88,17.39-29.81,34.73A5.73,5.73,0,0,1,426.21,346.59Z"/><path d="M414.22,336.25a5.89,5.89,0,0,1,.64-1.28q14.85-17.36,29.76-34.66c.28-.33.87-.4,1.31-.59a3.56,3.56,0,0,1-.41,1.29q-14.89,17.42-29.83,34.78a7,7,0,0,1-1,.78Z"/><path d="M451.83,304.8c-.18,1.28-30.3,36.33-31.94,36.75a10.7,10.7,0,0,1,.95-1.71c3.3-3.88,6.62-7.73,9.94-11.6q9.72-11.33,19.45-22.64a10.78,10.78,0,0,1,1.3-1.12Z"/><path d="M257.91,106c-4.48.49-9,1-13.44,1.47-9.18.88-18.36,1.7-27.54,2.55a6.4,6.4,0,0,0-2.44.63c3.47,1.7,6.93,3.4,10.41,5.09,5.53,2.68,11,5.41,16.61,8,1.71.79,2.05,1.51,1.21,3.26q-13.26,27.33-26.38,54.73Q209,197,201.55,212.35c-1.25,2.58-1.26,2.6-3.82,1.37l-80.15-38.61L58.94,146.87c-2.37-1.15-2.41-1.26-1.25-3.66q19.22-39.92,38.39-79.84A11.17,11.17,0,0,0,97,58c-.74-9.57-1.7-19.11-2.59-28.66-.29-3.11-.29-3.11,2.76-3.4L245.9,12.1c.74-.07,1.48-.22,2.21-.34l1.11.23c.14.86.33,1.72.41,2.58q3.3,35.73,6.6,71.45c.59,6.28,1.27,12.56,1.9,18.84ZM241.64,125.5l-141-67.92c-14,29.13-28,58.07-42,87.33l141,67.86C213.71,183.49,227.63,154.59,241.64,125.5ZM97,27.51c1,.82,1.5,1.34,2.1,1.77L175,83.83c2.7,1.94,3.24,1.88,5.55-.53l64.75-67.71c.49-.51.94-1.06,1.75-2ZM256.3,103.82c-2.76-29.85-5.47-59.12-8.22-88.89L200.17,65Zm-1.54,1c-.78-.63-1.17-1-1.61-1.31Q226.77,85.33,200.4,67.08a1.58,1.58,0,0,0-2.49.28c-5.07,5.39-10.21,10.71-15.33,16.06-4.15,4.34-4.71,4.4-9.55.92Q164,77.88,155,71.43c-.48-.33-1.5-.68-1.74-.46-2.3,2.16-4.5,4.44-6.87,6.83L148.67,79c19.87,9.58,39.73,19.2,59.65,28.69a11,11,0,0,0,5.4,1c10-.79,20-1.79,30-2.73ZM152.33,69.5,96,29c.89,9.71,1.75,18.92,2.6,28.12,1.17-1.75,2.41-1.13,3.66-.53q11.16,5.41,22.34,10.8c6.32,3,12.65,6.08,19,9.07a2,2,0,0,0,1.78,0C147.71,74.23,149.92,71.93,152.33,69.5Z"/><path class="cls-2" d="M241.64,125.5c-14,29.09-27.93,58-42,87.27l-141-67.86c14.08-29.26,28-58.2,42.05-87.33Zm-34.2,1.31c-2.31-2-4.29-4.32-6.78-5.77a26.77,26.77,0,0,0-8.22-2.91,10.21,10.21,0,0,0-8.24,1.38,3,3,0,0,0,2,.37c8-1.48,14.24,1.28,19.2,7.53,1.26,1.59.88,2.75-.37,4.08-.84-.93-1.58-1.78-2.35-2.6-5.21-5.52-11.58-7.46-19-6-.6.11-1.08.76-1.62,1.15a4.93,4.93,0,0,0,1.8.34c8-1.45,14.43,1.16,19.35,7.58,1.3,1.69,1.22,2.27-.42,3.9,0,0-.12,0-.16-.09-.55-.6-1.09-1.21-1.63-1.82a19.52,19.52,0,0,0-18.75-6.74,3.47,3.47,0,0,0-1.27.28,5.46,5.46,0,0,0-1,1.06,6.18,6.18,0,0,0,1.28.42,4,4,0,0,0,1.11-.19,18.2,18.2,0,0,1,16.8,5.46c3.15,3.24,3.14,3.25,1.3,7.34-.05.11-.09.23-.15.34-.58,1.09-.38,1.82.82,2.39q9.68,4.6,19.31,9.31a1.43,1.43,0,0,0,2.24-.81c.85-1.82,1.82-3.59,2.59-5.43.47-1.12,1.1-1.4,2.17-1a2.65,2.65,0,0,0,1.09.24,4.39,4.39,0,0,0,1.12-.39c-.22-.34-.37-.81-.68-1a12.53,12.53,0,0,0-1.86-.74c-.3-4.23,3-1.92,4.74-2.61l.09-.54-2.76-1.52c.69-2.69.69-2.67,3.26-2.23a5.74,5.74,0,0,0,1.48-.13l.17-.62-2.81-1.56c.43-2.08,1.35-3.17,3.51-2.12a.6.6,0,0,0,.36.07c.34-.1.66-.24,1-.37-.18-.35-.28-.86-.56-1a17.91,17.91,0,0,0-2.29-1c.37-.83.62-1.54,1-2.18.65-1.14.32-1.81-.83-2.36q-9.68-4.62-19.32-9.3c-1.09-.54-1.71-.35-2.21.76-.72,1.56-1.55,3.08-2.47,4.89-3-3.71-6.16-6.7-10.44-8.21-4.64-1.64-11.14-1.4-13,.87a16.9,16.9,0,0,0,2.51,0c7.8-1.36,14,1.22,18.9,7.38C208.59,124.24,208.63,125.49,207.44,126.81ZM177,172.22c.09-.29.19-.58.29-.86a18.68,18.68,0,0,0-1.65-1q-11.16-5.43-22.35-10.82-17.44-8.42-34.92-16.8a9.56,9.56,0,0,0-2.19-.46l-.24.65a13.12,13.12,0,0,0,1.72,1.18c4.79,2.34,9.6,4.63,14.39,7q21.27,10.24,42.52,20.49A14.08,14.08,0,0,0,177,172.22Zm-56.26-39.35-.31.82a19.33,19.33,0,0,0,1.94,1.25q23.38,11.28,46.79,22.52c3.61,1.74,7.22,3.5,10.86,5.19.41.19,1,0,1.5,0-.25-.43-.48-.86-.76-1.27-.09-.14-.31-.2-.48-.28q-28.89-13.92-57.79-27.83A7.78,7.78,0,0,0,120.76,132.87Zm-9.31,19.42a25.26,25.26,0,0,0,2.22,1.35q9.48,4.61,19,9.16,19,9.13,38,18.26a7.1,7.1,0,0,0,2.05.29C171.13,179.14,113.21,151.54,111.45,152.29ZM183,119.09a10.55,10.55,0,1,0-12.38,8.28A10.5,10.5,0,0,0,183,119.09ZM124.33,97.73l.22-.54A8,8,0,0,0,123.1,96q-12.69-6.15-25.41-12.22c-.46-.21-1.12,0-1.68,0,.32.46.54,1.13,1,1.35q12.84,6.25,25.75,12.38A5,5,0,0,0,124.33,97.73Zm2.83-5.94.54-.83a8.24,8.24,0,0,0-1.61-1.36q-12.57-6.12-25.18-12.13A6.94,6.94,0,0,0,99,77.15l-.29.91C108.14,82.75,117.64,87.29,127.16,91.79Zm-25-21-.22.55a7.89,7.89,0,0,0,1.48,1.19Q116,78.69,128.63,84.72c.5.25,1.23,0,1.85,0-.4-.47-.7-1.14-1.2-1.39q-12.66-6.19-25.37-12.28A6.22,6.22,0,0,0,102.16,70.81Z"/><path class="cls-2" d="M97,27.51,247,13.61c-.81.92-1.26,1.47-1.75,2L180.53,83.3c-2.31,2.41-2.85,2.47-5.55.53L99.08,29.28C98.48,28.85,98,28.33,97,27.51Z"/><path class="cls-2" d="M256.3,103.82,200.17,65l47.91-50.11C250.83,44.7,253.54,74,256.3,103.82Z"/><path class="cls-2" d="M254.76,104.86l-11.08,1c-10,.94-20,1.94-30,2.73a11,11,0,0,1-5.4-1C188.4,98.17,168.54,88.55,148.67,79l-2.31-1.17c2.37-2.39,4.57-4.67,6.87-6.83.24-.22,1.26.13,1.74.46Q164,77.85,173,84.34c4.84,3.48,5.4,3.42,9.55-.92,5.12-5.35,10.26-10.67,15.33-16.06a1.58,1.58,0,0,1,2.49-.28q26.35,18.27,52.75,36.47C253.59,103.86,254,104.23,254.76,104.86Z"/><path class="cls-2" d="M152.33,69.5c-2.41,2.43-4.62,4.73-6.93,6.91a2,2,0,0,1-1.78,0c-6.35-3-12.68-6-19-9.07Q113.45,62,102.28,56.58c-1.25-.6-2.49-1.22-3.66.53C97.77,47.91,96.91,38.7,96,29Z"/><path d="M207.44,126.81c1.19-1.32,1.15-2.57,0-4.07-4.89-6.16-11.1-8.74-18.9-7.38a16.9,16.9,0,0,1-2.51,0c1.89-2.27,8.39-2.51,13-.87,4.28,1.51,7.45,4.5,10.44,8.21.92-1.81,1.75-3.33,2.47-4.89.5-1.11,1.12-1.3,2.21-.76q9.65,4.7,19.32,9.3c1.15.55,1.48,1.22.83,2.36-.37.64-.62,1.35-1,2.18a17.91,17.91,0,0,1,2.29,1c.28.16.38.67.56,1-.33.13-.65.27-1,.37a.6.6,0,0,1-.36-.07c-2.16-1.05-3.08,0-3.51,2.12l2.81,1.56-.17.62a5.74,5.74,0,0,1-1.48.13c-2.57-.44-2.57-.46-3.26,2.23l2.76,1.52-.09.54c-1.7.69-5-1.62-4.74,2.61a12.53,12.53,0,0,1,1.86.74c.31.17.46.64.68,1a4.39,4.39,0,0,1-1.12.39,2.65,2.65,0,0,1-1.09-.24c-1.07-.41-1.7-.13-2.17,1-.77,1.84-1.74,3.61-2.59,5.43a1.43,1.43,0,0,1-2.24.81q-9.63-4.69-19.31-9.31c-1.2-.57-1.4-1.3-.82-2.39.06-.11.1-.23.15-.34,1.84-4.09,1.85-4.1-1.3-7.34a18.2,18.2,0,0,0-16.8-5.46,4,4,0,0,1-1.11.19,6.18,6.18,0,0,1-1.28-.42,5.46,5.46,0,0,1,1-1.06,3.47,3.47,0,0,1,1.27-.28A19.52,19.52,0,0,1,201,134c.54.61,1.08,1.22,1.63,1.82,0,0,.11.06.16.09,1.64-1.63,1.72-2.21.42-3.9-4.92-6.42-11.33-9-19.35-7.58a4.93,4.93,0,0,1-1.8-.34c.54-.39,1-1,1.62-1.15,7.4-1.46,13.77.48,19,6,.77.82,1.51,1.67,2.35,2.6,1.25-1.33,1.63-2.49.37-4.08-5-6.25-11.23-9-19.2-7.53a3,3,0,0,1-2-.37,10.21,10.21,0,0,1,8.24-1.38,26.77,26.77,0,0,1,8.22,2.91C203.15,122.49,205.13,124.79,207.44,126.81Zm6-8.32a44.31,44.31,0,0,0-2.23,4.58,2.58,2.58,0,0,0,.31,2.17,11.68,11.68,0,0,0,8.28,4.64c3.05.25,6.11.46,9.17.67,2.82.2,3,.07,3.68-2.81Zm10.82,27.34c-7.56-.91-15.55.7-20.89-6.5-.64,1.35-1.09,2.3-1.66,3.47l19.51,9.36Zm1.93-4.53c-3.77-.28-7.44-.52-11.1-.85-3.93-.35-6.9-2.6-9.5-5.45-1.61,2.77-1.61,2.76.33,4.73a12.84,12.84,0,0,0,8.54,3.87c2.82.2,5.65.18,8.45.52C225.07,144.39,225.77,143.32,226.18,141.3Zm2.12-4.53c-2.71-.18-5.37-.47-8-.52-4.67-.09-8.72-1.52-11.89-5.07a5,5,0,0,0-.68-.51c-1.6,2.48-1.58,2.54.31,4.5a13.07,13.07,0,0,0,9.07,3.94c2.63.14,5.25.31,7.88.46S227.52,139.72,228.3,136.77Zm-18.23-10.71c-1.79,2.38-1.79,2.58-.09,4.41a10.82,10.82,0,0,0,6.59,3.69c3.6.44,7.23.58,10.83,1,2,.2,2.81-.8,3.07-2.83C223.19,131.57,215.3,133,210.07,126.06Z"/><path d="M177,172.22a14.08,14.08,0,0,1-2.43-.68q-21.27-10.22-42.52-20.49c-4.79-2.32-9.6-4.61-14.39-7a13.12,13.12,0,0,1-1.72-1.18l.24-.65a9.56,9.56,0,0,1,2.19.46q17.49,8.37,34.92,16.8,11.19,5.39,22.35,10.82a18.68,18.68,0,0,1,1.65,1C177.21,171.64,177.11,171.93,177,172.22Z"/><path d="M120.76,132.87a7.78,7.78,0,0,1,1.75.37q28.9,13.89,57.79,27.83c.17.08.39.14.48.28.28.41.51.84.76,1.27-.5,0-1.09.22-1.5,0-3.64-1.69-7.25-3.45-10.86-5.19q-23.4-11.25-46.79-22.52a19.33,19.33,0,0,1-1.94-1.25Z"/><path d="M111.45,152.29c1.76-.75,59.68,26.85,61.23,29.06a7.1,7.1,0,0,1-2.05-.29q-19-9.1-38-18.26-9.5-4.58-19-9.16A25.26,25.26,0,0,1,111.45,152.29Z"/><path d="M183,119.09a10.55,10.55,0,1,1-8.4-12.44A10.57,10.57,0,0,1,183,119.09Zm-12.17,6.68a9,9,0,0,0,10.66-6.91,9,9,0,1,0-10.66,6.91Z"/><path d="M124.33,97.73a5,5,0,0,1-1.58-.2Q109.85,91.4,97,85.15c-.45-.22-.67-.89-1-1.35.56,0,1.22-.22,1.68,0Q110.41,89.85,123.1,96a8,8,0,0,1,1.45,1.18Z"/><path d="M127.16,91.79c-9.52-4.5-19-9-28.45-13.73l.29-.91a6.94,6.94,0,0,1,1.91.32q12.61,6,25.18,12.13A8.24,8.24,0,0,1,127.7,91Z"/><path d="M102.16,70.81a6.22,6.22,0,0,1,1.75.26q12.7,6.09,25.37,12.28c.5.25.8.92,1.2,1.39-.62,0-1.35.23-1.85,0q-12.63-6-25.21-12.17a7.89,7.89,0,0,1-1.48-1.19Z"/><path class="cls-2" d="M213.43,118.49l19.21,9.25c-.69,2.88-.86,3-3.68,2.81-3.06-.21-6.12-.42-9.17-.67a11.68,11.68,0,0,1-8.28-4.64,2.58,2.58,0,0,1-.31-2.17A44.31,44.31,0,0,1,213.43,118.49Z"/><path class="cls-2" d="M224.25,145.83l-3,6.33L201.7,142.8c.57-1.17,1-2.12,1.66-3.47C208.7,146.53,216.69,144.92,224.25,145.83Z"/><path class="cls-2" d="M226.18,141.3c-.41,2-1.11,3.09-3.28,2.82-2.8-.34-5.63-.32-8.45-.52a12.84,12.84,0,0,1-8.54-3.87c-1.94-2-1.94-2-.33-4.73,2.6,2.85,5.57,5.1,9.5,5.45C218.74,140.78,222.41,141,226.18,141.3Z"/><path class="cls-2" d="M228.3,136.77c-.78,2.95-.79,2.95-3.35,2.8s-5.25-.32-7.88-.46a13.07,13.07,0,0,1-9.07-3.94c-1.89-2-1.91-2-.31-4.5a5,5,0,0,1,.68.51c3.17,3.55,7.22,5,11.89,5.07C222.93,136.3,225.59,136.59,228.3,136.77Z"/><path class="cls-2" d="M210.07,126.06c5.23,7,13.12,5.51,20.4,6.22-.26,2-1,3-3.07,2.83-3.6-.37-7.23-.51-10.83-1a10.82,10.82,0,0,1-6.59-3.69C208.28,128.64,208.28,128.44,210.07,126.06Z"/><path class="cls-2" d="M170.87,125.77a9.05,9.05,0,0,1-7.06-10.57,9,9,0,1,1,17.72,3.66A9,9,0,0,1,170.87,125.77Z"/><path d="M360.57,149.92c-1.14-1.31-1-2.65-.33-4.16Q366.72,131.9,373.1,118a13.76,13.76,0,0,1,8.82-7.77,120.8,120.8,0,0,0,30.51-14.09c5.94-3.91,11.31-8.45,15.32-14.41a28.59,28.59,0,0,0,5-14.5,2.88,2.88,0,0,0-1.34-2.84c-2.66-1.87-5.12-4.09-8.39-4.86a11.62,11.62,0,0,0-4.06-.32c-2.26.29-3.11,2-2.27,4.12a24.48,24.48,0,0,1,.73,16.45,4.47,4.47,0,0,1-4.82,3.55c-5.14,0-10.27-.08-15.41-.12L374.56,83c-3.88,0-5.24-1.16-6-4.93a28.13,28.13,0,0,1,.75-14.95,5,5,0,0,0,.17-.86l2.22-4.77c.65-.91,1.28-1.84,2-2.73C378.88,48,386,44.44,394.18,42.83,403,41.09,411.81,42,420.51,44A246.19,246.19,0,0,1,453,54.06a336.8,336.8,0,0,1,35.54,16c14.14,7.35,27.84,15.43,40.21,25.57a53.28,53.28,0,0,1,15.5,19.7c3.87,8.75,4.21,17.58,0,26.3-2.83,5.9-7.52,10.05-13.32,12.94-2.35,1.17-4.25.64-6.12-1.52q-10.15-11.76-20.27-23.54c-1.58-1.83-3.18-3.65-4.73-5.51-2-2.45-2.11-4.17-.3-6.78A23.18,23.18,0,0,1,512,107.8c2.67-.82,3-3.27,1.58-5.11C511.7,100.18,509,99,506,98.1c-3.56-1-7.13-2.07-10.72-3a2.58,2.58,0,0,0-2,.53,28.37,28.37,0,0,0-8.84,15.65c-1.82,8.14-1.25,16.27.21,24.38a122.26,122.26,0,0,0,7.94,26.22,13.06,13.06,0,0,1-.25,11.35c-4.37,9.21-8.62,18.48-12.86,27.75-.75,1.63-1.81,2.54-3.65,2.42Zm73.95-83.38c-.16.17-.2.2-.21.23a4.17,4.17,0,0,0-.08.49c-.39,7.27-3.39,13.42-8,18.89-4.86,5.71-10.82,10-17.19,13.84-8.59,5.13-17.84,8.74-27.3,11.87a11.29,11.29,0,0,0-7,6.32c-4.33,9.41-8.71,18.8-13.07,28.2-.8,1.74-.67,2.1,1.05,2.9L475.1,201.46c1.87.87,2.21.74,3.07-1.11,4.27-9.21,8.49-18.45,12.85-27.62a12.48,12.48,0,0,0,.31-10.39c-2.19-5.82-4.33-11.68-6-17.65a76.93,76.93,0,0,1-3.19-26.86c.49-7,2.26-13.6,6.56-19.29,1.15-1.52,2.5-2.87,3.85-4.41-1.52-.59-3-1.13-4.39-1.7-2.68-1.06-2.67-1.06-4.41,1.14a22.23,22.23,0,0,1-6.52,6,7.72,7.72,0,0,1-8,.06c-1-.57-2.09-1-3.15-1.54-7.4-3.41-14.79-6.85-22.21-10.2A7.16,7.16,0,0,1,439.37,82a22.4,22.4,0,0,1-.1-5.11c.2-2,.75-3.93,1.08-5.9a1.35,1.35,0,0,0-.34-1.11C438.22,68.7,436.38,67.64,434.52,66.54ZM370,65.8l46.26.4c-.43-1.12-.73-2-1.12-2.9a3.32,3.32,0,0,1,.29-3.32,5.14,5.14,0,0,1,4.69-2.39,12.26,12.26,0,0,1,6.55,1.87c2.42,1.47,4.68,3.21,7.07,4.73a271.09,271.09,0,0,0,29.48,16.06c7.27,3.45,14.8,6.39,22.26,9.43,4.52,1.85,9.11,3.54,13.73,5.12,3.28,1.12,6.68,1.87,10,2.92a11.25,11.25,0,0,1,5.95,4.57c1.59,2.38.69,6.42-2.45,6.76a20.24,20.24,0,0,0-2.86.74l30.41,35.34a8.72,8.72,0,0,0,.66-.74,25.61,25.61,0,0,0,3.93-8.21c2-7.5.86-14.67-2.45-21.55-3.68-7.64-9.24-13.77-15.82-19-13-10.3-27.23-18.6-42-26A324.92,324.92,0,0,0,445.9,53a216.76,216.76,0,0,0-28.27-8.14c-8.22-1.68-16.48-2.21-24.72-.26s-15.18,6-19.72,13.48A28.56,28.56,0,0,0,370,65.8Zm72,5.06a25.25,25.25,0,0,0-1.27,10.43,6.17,6.17,0,0,0,3.63,5.19q13,6,26,12.07a6,6,0,0,0,5.54,0c3.43-1.72,5.78-4.55,8.05-7.78A320,320,0,0,1,442,70.86ZM416.7,67.71l-1.62-.06c-9.31-.1-18.61-.23-27.92-.3-5.42,0-10.85,0-16.27,0-.42,0-1.16.29-1.19.5-.2,1.88-.28,3.78-.4,5.76l47.85.41C417,71.89,416.86,69.87,416.7,67.71ZM539.42,146.4l-30.69-35.64-5.19,3.77,31.18,36.25ZM369.47,75.1c.21,1.08.36,2,.55,2.88.6,2.84,1.46,3.55,4.36,3.58l26,.25,12,.09c1.32,0,2.67-.23,3.22-1.51A40.34,40.34,0,0,0,417,75.51Zm164,76.48L502.6,115.69,501.53,117c-2.44,3.16-2.42,3.91.17,6.91l19.62,22.78c1.6,1.86,3.2,3.74,4.83,5.59,1,1.11,2.18,1.77,3.67,1.14C531,152.92,532.19,152.25,533.51,151.58Z"/><path class="cls-2" d="M434.52,66.54c1.86,1.1,3.7,2.16,5.49,3.3a1.35,1.35,0,0,1,.34,1.11c-.33,2-.88,3.92-1.08,5.9a22.4,22.4,0,0,0,.1,5.11,7.16,7.16,0,0,0,4.47,5.89c7.42,3.35,14.81,6.79,22.21,10.2,1.06.49,2.13,1,3.15,1.54a7.72,7.72,0,0,0,8-.06,22.23,22.23,0,0,0,6.52-6c1.74-2.2,1.73-2.2,4.41-1.14,1.43.57,2.87,1.11,4.39,1.7-1.35,1.54-2.7,2.89-3.85,4.41-4.3,5.69-6.07,12.29-6.56,19.29a76.93,76.93,0,0,0,3.19,26.86c1.71,6,3.85,11.83,6,17.65a12.48,12.48,0,0,1-.31,10.39c-4.36,9.17-8.58,18.41-12.85,27.62-.86,1.85-1.2,2-3.07,1.11L362.64,149.28c-1.72-.8-1.85-1.16-1.05-2.9,4.36-9.4,8.74-18.79,13.07-28.2a11.29,11.29,0,0,1,7-6.32c9.46-3.13,18.71-6.74,27.3-11.87,6.37-3.81,12.33-8.13,17.19-13.84,4.65-5.47,7.65-11.62,8-18.89a4.17,4.17,0,0,1,.08-.49S434.36,66.71,434.52,66.54Zm24.86,30.87c-10.4-4.77-17.93-6.56-25.84-5.55-14.81,1.87-21.05,8.89-24.52,20.58-2.22,7.43-.64,14.59,2.92,21.31,7.7,14.53,26,23.31,42.2,20.23,8.77-1.67,15.91-5.85,20.54-13.77,5-8.5,5.35-17.17.88-25.95C471.28,105.88,464.65,99.91,459.38,97.41Zm-38,72.61c2.61,1.21,5.22,2.43,7.84,3.63a25.55,25.55,0,0,0,2.64,1.13,4,4,0,0,0,5.12-2.39,3.92,3.92,0,0,0-2-5.08q-10.19-4.8-20.44-9.48a4,4,0,0,0-5.15,1.81A4.08,4.08,0,0,0,410.8,165a14.64,14.64,0,0,0,1.87,1Z"/><path class="cls-2" d="M370,65.8a28.56,28.56,0,0,1,3.2-7.73c4.54-7.46,11.44-11.52,19.72-13.48s16.5-1.42,24.72.26A216.76,216.76,0,0,1,445.9,53a324.92,324.92,0,0,1,38.66,16.62c14.76,7.43,29,15.73,42,26,6.58,5.22,12.14,11.35,15.82,19,3.31,6.88,4.45,14.05,2.45,21.55a25.61,25.61,0,0,1-3.93,8.21,8.72,8.72,0,0,1-.66.74l-30.41-35.34a20.24,20.24,0,0,1,2.86-.74c3.14-.34,4-4.38,2.45-6.76a11.25,11.25,0,0,0-5.95-4.57c-3.3-1-6.7-1.8-10-2.92-4.62-1.58-9.21-3.27-13.73-5.12-7.46-3-15-6-22.26-9.43a271.09,271.09,0,0,1-29.48-16.06c-2.39-1.52-4.65-3.26-7.07-4.73a12.26,12.26,0,0,0-6.55-1.87A5.14,5.14,0,0,0,415.42,60a3.32,3.32,0,0,0-.29,3.32c.39.87.69,1.78,1.12,2.9Z"/><path class="cls-2" d="M442,70.86a320,320,0,0,0,42,19.89c-2.27,3.23-4.62,6.06-8.05,7.78a6,6,0,0,1-5.54,0q-13-6.06-26-12.07a6.17,6.17,0,0,1-3.63-5.19A25.25,25.25,0,0,1,442,70.86Z"/><path class="cls-2" d="M416.7,67.71c.16,2.16.3,4.18.45,6.34l-47.85-.41c.12-2,.2-3.88.4-5.76,0-.21.77-.49,1.19-.5,5.42,0,10.85-.07,16.27,0,9.31.07,18.61.2,27.92.3Z"/><path class="cls-2" d="M539.42,146.4l-4.7,4.38-31.18-36.25,5.19-3.77Z"/><path class="cls-2" d="M369.47,75.1l47.57.41a40.34,40.34,0,0,1-1.39,4.88c-.55,1.28-1.9,1.52-3.22,1.51l-12-.09-26-.25c-2.9,0-3.76-.74-4.36-3.58C369.83,77.08,369.68,76.18,369.47,75.1Z"/><path class="cls-2" d="M533.51,151.58c-1.32.67-2.47,1.34-3.69,1.85-1.49.63-2.7,0-3.67-1.14-1.63-1.85-3.23-3.73-4.83-5.59L501.7,123.92c-2.59-3-2.61-3.75-.17-6.91l1.07-1.32Z"/><path d="M459.38,97.41c5.27,2.5,11.9,8.47,16.18,16.85,4.47,8.78,4.08,17.45-.88,26-4.63,7.92-11.77,12.1-20.54,13.77-16.16,3.08-34.5-5.7-42.2-20.23-3.56-6.72-5.14-13.88-2.92-21.31,3.47-11.69,9.71-18.71,24.52-20.58C441.45,90.85,449,92.64,459.38,97.41Zm-26.48,47.7a40.33,40.33,0,0,0,11.33,3.53c7.66,1.17,15.09.57,22-3.33a20.55,20.55,0,0,0,10-12.15c2.17-7.19.76-13.93-3-20.19-5.77-9.54-14.36-15.43-25-18.4a35.67,35.67,0,0,0-21,0c-6.21,2-11.4,5.54-14.25,11.62-3.2,6.82-2.71,13.75.53,20.44C417.65,135.22,424.41,141.1,432.9,145.11Zm-23.12-24.75a24.6,24.6,0,0,0,2.68,11.18c6.43,12.29,16.63,19.34,30.32,21.21,8.54,1.17,16.57-.28,23.69-5.47.23-.17.44-.38.92-.8-11.87,6-23.49,5.31-34.87,0S412.87,133,409.78,120.36Z"/><path d="M421.41,170,412.67,166a14.64,14.64,0,0,1-1.87-1,4.08,4.08,0,0,1-1.35-5.31,4,4,0,0,1,5.15-1.81q10.25,4.68,20.44,9.48a3.92,3.92,0,0,1,2,5.08,4,4,0,0,1-5.12,2.39,25.55,25.55,0,0,1-2.64-1.13C426.63,172.45,424,171.23,421.41,170Zm2.88-6.13c-1.7-.79-3.4-1.59-5.11-2.37s-3.47-1.65-5.25-2.37a2.51,2.51,0,0,0-3.2,1.22,2.63,2.63,0,0,0,.83,3.34,8.66,8.66,0,0,0,1.43.79L431.28,173a6.18,6.18,0,0,0,1.66.53,2.58,2.58,0,0,0,1.77-4.69,9.46,9.46,0,0,0-1.21-.66Z"/><path class="cls-2" d="M432.9,145.11c-8.49-4-15.25-9.89-19.38-18.44-3.24-6.69-3.73-13.62-.53-20.44,2.85-6.08,8-9.61,14.25-11.62a35.67,35.67,0,0,1,21,0c10.63,3,19.22,8.86,25,18.4,3.78,6.26,5.19,13,3,20.19a20.55,20.55,0,0,1-10,12.15c-6.89,3.9-14.32,4.5-22,3.33A40.33,40.33,0,0,1,432.9,145.11ZM439,132a17.26,17.26,0,0,0,11,1.57c3.54-.68,6.4-2.4,7.77-6a9.72,9.72,0,0,0-.58-7.88c-3.28-7-12.8-11.44-20.27-9.59-6.82,1.69-9.61,7.83-6.39,14.06A17.32,17.32,0,0,0,439,132Zm-20.9-3.55a7.29,7.29,0,0,0,6.95-.12,3.86,3.86,0,0,0,.81-6.26,7.49,7.49,0,0,0-8.48-1.27,3.9,3.9,0,0,0-.75,6.7A12.92,12.92,0,0,0,418.14,128.41ZM442.61,107c2.37,1.09,4.25,1.23,5.77.69a3.76,3.76,0,0,0,2.34-5.15,7.38,7.38,0,0,0-8.51-4,3.79,3.79,0,0,0-2.44,5.38A6.46,6.46,0,0,0,442.61,107ZM461,142.64a12.76,12.76,0,0,0,2.46.31,3.74,3.74,0,0,0,3.66-4.31,7.38,7.38,0,0,0-6.7-6.23,3.77,3.77,0,0,0-4.09,4.58C456.72,139.57,458.34,141.22,461,142.64Zm-3.78-28.85a6.79,6.79,0,0,0,5,.42,3.76,3.76,0,0,0,2.41-5.3,7.36,7.36,0,0,0-8.48-3.88,3.76,3.76,0,0,0-2.4,5.3A6.83,6.83,0,0,0,457.23,113.79Zm-27.73-5.7a19.54,19.54,0,0,0,3.28.49,3.83,3.83,0,0,0,3.69-4.62A7.41,7.41,0,0,0,429,98.28,3.73,3.73,0,0,0,425.5,103,7.64,7.64,0,0,0,429.5,108.09Zm-9.74,7.62a7.59,7.59,0,0,0,5.21.74,3.84,3.84,0,0,0,2.66-5.48,7.41,7.41,0,0,0-8.3-3.86,3.82,3.82,0,0,0-2.47,5.56A6.6,6.6,0,0,0,419.76,115.71Zm26.68,30.19a6.83,6.83,0,0,0,4.75.66,3.86,3.86,0,0,0,2.66-5.74,7.47,7.47,0,0,0-8.08-3.66,3.83,3.83,0,0,0-2.64,5.49A6.18,6.18,0,0,0,446.44,145.9Zm-15-4.74,0,.36a22.87,22.87,0,0,0,4.51.17c2.85-.46,4-3.16,2.73-5.73a7.43,7.43,0,0,0-8.09-3.61,3.8,3.8,0,0,0-2.57,5.5A6.69,6.69,0,0,0,431.43,141.16ZM466.13,127a14.66,14.66,0,0,0,1.92.5c1.84.24,3.56,0,4.63-1.73s.59-3.39-.42-4.94a7,7,0,0,0-6.07-3.37c-3.24,0-5.05,2.63-3.82,5.64A7.64,7.64,0,0,0,466.13,127Z"/><path class="cls-2" d="M409.78,120.36c3.09,12.64,11.36,20.89,22.74,26.16s23,5.91,34.87,0c-.48.42-.69.63-.92.8-7.12,5.19-15.15,6.64-23.69,5.47-13.69-1.87-23.89-8.92-30.32-21.21A24.6,24.6,0,0,1,409.78,120.36Z"/><path class="cls-2" d="M424.29,163.89l9.21,4.27a9.46,9.46,0,0,1,1.21.66,2.58,2.58,0,0,1-1.77,4.69,6.18,6.18,0,0,1-1.66-.53L413,164.5a8.66,8.66,0,0,1-1.43-.79,2.63,2.63,0,0,1-.83-3.34,2.51,2.51,0,0,1,3.2-1.22c1.78.72,3.51,1.57,5.25,2.37S422.59,163.1,424.29,163.89Z"/><path d="M439,132a17.32,17.32,0,0,1-8.51-7.8c-3.22-6.23-.43-12.37,6.39-14.06,7.47-1.85,17,2.64,20.27,9.59a9.72,9.72,0,0,1,.58,7.88c-1.37,3.56-4.23,5.28-7.77,6A17.26,17.26,0,0,1,439,132Zm.23-1.53c4.09,2,8.39,2.45,11.76,1.37,5.07-1.61,7.1-6,5.07-10.89-2.9-7-12.68-11.5-19.91-9.07-4.52,1.52-6.62,5.65-5,10.16a14,14,0,0,0,1.84,3.38A15.32,15.32,0,0,0,439.27,130.43Z"/><path d="M418.14,128.41a12.92,12.92,0,0,1-1.47-1,3.9,3.9,0,0,1,.75-6.7A7.49,7.49,0,0,1,425.9,122a3.86,3.86,0,0,1-.81,6.26A7.29,7.29,0,0,1,418.14,128.41Zm5.43-6.3c-2.08-.81-3.95-1-5.74.09a2.31,2.31,0,0,0-.56,3.73,5.89,5.89,0,0,0,7.09,1.11,2.41,2.41,0,0,0,.53-3.92A10.88,10.88,0,0,0,423.57,122.11Z"/><path d="M442.61,107a6.46,6.46,0,0,1-2.84-3.12,3.79,3.79,0,0,1,2.44-5.38,7.38,7.38,0,0,1,8.51,4,3.76,3.76,0,0,1-2.34,5.15C446.86,108.25,445,108.11,442.61,107Zm1.06-.76a19.83,19.83,0,0,0,3.86.14c1.8-.29,2.48-1.85,1.74-3.51a5.91,5.91,0,0,0-6.63-3,2.25,2.25,0,0,0-1.51,3.34A19.6,19.6,0,0,0,443.67,106.26Z"/><path d="M461,142.64c-2.67-1.42-4.29-3.07-4.67-5.65a3.77,3.77,0,0,1,4.09-4.58,7.38,7.38,0,0,1,6.7,6.23,3.74,3.74,0,0,1-3.66,4.31A12.76,12.76,0,0,1,461,142.64Zm.18-1.43a17.66,17.66,0,0,0,1.81.28,2.34,2.34,0,0,0,2.63-3,6.1,6.1,0,0,0-4.75-4.59c-2.35-.34-3.68,1.21-3,3.5A6.84,6.84,0,0,0,461.19,141.21Z"/><path d="M457.23,113.79a6.83,6.83,0,0,1-3.5-3.46,3.76,3.76,0,0,1,2.4-5.3,7.36,7.36,0,0,1,8.48,3.88,3.76,3.76,0,0,1-2.41,5.3A6.79,6.79,0,0,1,457.23,113.79Zm.47-1a20.8,20.8,0,0,0,4,0,2.27,2.27,0,0,0,1.56-3.32,5.91,5.91,0,0,0-6.69-3.09,2.26,2.26,0,0,0-1.51,3.35A21.64,21.64,0,0,0,457.7,112.81Z"/><path d="M429.5,108.09a7.64,7.64,0,0,1-4-5.14A3.73,3.73,0,0,1,429,98.28a7.41,7.41,0,0,1,7.52,5.68,3.83,3.83,0,0,1-3.69,4.62A19.54,19.54,0,0,1,429.5,108.09Zm.69-1.36a14.94,14.94,0,0,0,2.55.37,2.33,2.33,0,0,0,2.28-2.91,6,6,0,0,0-5.75-4.48A2.39,2.39,0,0,0,427,103,6,6,0,0,0,430.19,106.73Z"/><path d="M419.76,115.71a6.6,6.6,0,0,1-2.9-3,3.82,3.82,0,0,1,2.47-5.56,7.41,7.41,0,0,1,8.3,3.86,3.84,3.84,0,0,1-2.66,5.48A7.59,7.59,0,0,1,419.76,115.71Zm.92-.8a20.81,20.81,0,0,0,3.91.1,2.32,2.32,0,0,0,1.73-3.44,6,6,0,0,0-6.61-3.07c-1.62.51-2.39,2-1.56,3.44A20.4,20.4,0,0,0,420.68,114.91Z"/><path d="M446.44,145.9a6.18,6.18,0,0,1-3.31-3.25,3.83,3.83,0,0,1,2.64-5.49,7.47,7.47,0,0,1,8.08,3.66,3.86,3.86,0,0,1-2.66,5.74A6.83,6.83,0,0,1,446.44,145.9Zm3.59-7.2a20.88,20.88,0,0,0-4.11,0c-1.54.29-2.1,1.75-1.54,3.23a6,6,0,0,0,6.77,3.14,2.25,2.25,0,0,0,1.44-3.38A21.06,21.06,0,0,0,450,138.7Z"/><path d="M431.43,141.16a6.69,6.69,0,0,1-3.44-3.31,3.8,3.8,0,0,1,2.57-5.5,7.43,7.43,0,0,1,8.09,3.61c1.3,2.57.12,5.27-2.73,5.73a22.87,22.87,0,0,1-4.51-.17Zm3.37-7.33a20.59,20.59,0,0,0-3.92,0,2.26,2.26,0,0,0-1.66,3.27,5.89,5.89,0,0,0,6.76,3.15c1.55-.55,2.27-1.95,1.45-3.37A21.17,21.17,0,0,0,434.8,133.83Z"/><path d="M466.13,127a7.64,7.64,0,0,1-3.76-3.9c-1.23-3,.58-5.68,3.82-5.64a7,7,0,0,1,6.07,3.37c1,1.55,1.48,3.24.42,4.94s-2.79,2-4.63,1.73A14.66,14.66,0,0,1,466.13,127Zm.86-1.17a13.65,13.65,0,0,0,2.56.27,2.34,2.34,0,0,0,2.2-3,5.73,5.73,0,0,0-6.42-4.11,2.31,2.31,0,0,0-1.78,3.15A6.28,6.28,0,0,0,467,125.78Z"/><path class="cls-2" d="M439.27,130.43a15.32,15.32,0,0,1-6.27-5.05,14,14,0,0,1-1.84-3.38c-1.59-4.51.51-8.64,5-10.16,7.23-2.43,17,2,19.91,9.07,2,4.92,0,9.28-5.07,10.89C447.66,132.88,443.36,132.42,439.27,130.43Z"/><path class="cls-2" d="M423.57,122.11a10.88,10.88,0,0,1,1.32,1,2.41,2.41,0,0,1-.53,3.92,5.89,5.89,0,0,1-7.09-1.11,2.31,2.31,0,0,1,.56-3.73C419.62,121.12,421.49,121.3,423.57,122.11Z"/><path class="cls-2" d="M443.67,106.26a19.6,19.6,0,0,1-2.54-3,2.25,2.25,0,0,1,1.51-3.34,5.91,5.91,0,0,1,6.63,3c.74,1.66.06,3.22-1.74,3.51A19.83,19.83,0,0,1,443.67,106.26Z"/><path class="cls-2" d="M461.19,141.21a6.84,6.84,0,0,1-3.29-3.81c-.7-2.29.63-3.84,3-3.5a6.1,6.1,0,0,1,4.75,4.59,2.34,2.34,0,0,1-2.63,3A17.66,17.66,0,0,1,461.19,141.21Z"/><path class="cls-2" d="M457.7,112.81a21.64,21.64,0,0,1-2.61-3.07,2.26,2.26,0,0,1,1.51-3.35,5.91,5.91,0,0,1,6.69,3.09,2.27,2.27,0,0,1-1.56,3.32A20.8,20.8,0,0,1,457.7,112.81Z"/><path class="cls-2" d="M430.19,106.73A6,6,0,0,1,427,103a2.39,2.39,0,0,1,2.3-3.3,6,6,0,0,1,5.75,4.48,2.33,2.33,0,0,1-2.28,2.91A14.94,14.94,0,0,1,430.19,106.73Z"/><path class="cls-2" d="M420.68,114.91a20.4,20.4,0,0,1-2.53-3c-.83-1.47-.06-2.93,1.56-3.44a6,6,0,0,1,6.61,3.07,2.32,2.32,0,0,1-1.73,3.44A20.81,20.81,0,0,1,420.68,114.91Z"/><path class="cls-2" d="M450,138.7a21.06,21.06,0,0,1,2.56,3,2.25,2.25,0,0,1-1.44,3.38,6,6,0,0,1-6.77-3.14c-.56-1.48,0-2.94,1.54-3.23A20.88,20.88,0,0,1,450,138.7Z"/><path class="cls-2" d="M434.8,133.83a21.17,21.17,0,0,1,2.63,3c.82,1.42.1,2.82-1.45,3.37a5.89,5.89,0,0,1-6.76-3.15,2.26,2.26,0,0,1,1.66-3.27A20.59,20.59,0,0,1,434.8,133.83Z"/><path class="cls-2" d="M467,125.78a6.28,6.28,0,0,1-3.44-3.67,2.31,2.31,0,0,1,1.78-3.15,5.73,5.73,0,0,1,6.42,4.11,2.34,2.34,0,0,1-2.2,3A13.65,13.65,0,0,1,467,125.78Z"/><path class="cls-3" d="M335.57,191.82a1,1,0,1,1,1.33-.26A1,1,0,0,1,335.57,191.82Z"/><path class="cls-3" d="M284.82,335.14l80.65-119.92a7.55,7.55,0,0,0-2.06-10.5l-50.36-33.87a7.55,7.55,0,0,0-10.5,2.06L221.9,292.83A7.56,7.56,0,0,0,224,303.34l50.36,33.86A7.55,7.55,0,0,0,284.82,335.14Zm51.82-144.91a1,1,0,1,1-1.33.26A1,1,0,0,1,336.64,190.23Zm-7.29,1.05,9.07,6.1a.45.45,0,0,1,.12.61.44.44,0,0,1-.62.12l-9.07-6.1a.45.45,0,0,1-.12-.61A.45.45,0,0,1,329.35,191.28Zm-5.69-4.42a1.44,1.44,0,0,1,.53.69,1.37,1.37,0,0,1-2.06,1.59,1.37,1.37,0,0,1-.37-1.91,1.36,1.36,0,0,1,1.9-.37ZM250.8,318a6,6,0,0,1,1.34-10.6,5.93,5.93,0,0,1,5.32.68,5.86,5.86,0,0,1,2.3,3,6,6,0,0,1-9,7Zm-21-32,69.4-103.2,58.46,39.32-69.4,103.19Z"/><path class="cls-3" d="M337.92,198.11l-9.07-6.1a.45.45,0,0,1-.12-.61.45.45,0,0,1,.62-.12l9.07,6.1a.45.45,0,0,1,.12.61A.44.44,0,0,1,337.92,198.11Z"/><path class="cls-3" d="M322.13,189.14a1.37,1.37,0,0,1-.37-1.91,1.36,1.36,0,0,1,1.9-.37,1.44,1.44,0,0,1,.53.69,1.37,1.37,0,0,1-2.06,1.59Z"/><path class="cls-3" d="M250.8,318a6,6,0,0,1,1.34-10.6,5.93,5.93,0,0,1,5.32.68,5.86,5.86,0,0,1,2.3,3,6,6,0,0,1-9,7Z"/><rect class="cls-3" x="231.53" y="218.77" width="124.36" height="70.45" transform="translate(-80.97 355.96) rotate(-56.08)"/></g></g></svg>